<mxfile host="app.diagrams.net" modified="2023-05-14T16:21:03.409Z" agent="Mozilla/5.0 (Windows NT 10.0; Win64; x64) AppleWebKit/537.36 (KHTML, like Gecko) Chrome/113.0.0.0 Safari/537.36 Edg/113.0.1774.42" etag="PvKzYamkzrpCs2szbmkI" version="21.3.0" type="github">
  <diagram id="j7FIldx_En_j8BktasRs" name="Page-1">
    <mxGraphModel dx="4854" dy="3346" grid="0" gridSize="9" guides="1" tooltips="1" connect="1" arrows="1" fold="1" page="1" pageScale="1" pageWidth="827" pageHeight="1169" background="#FFFF33" math="0" shadow="0">
      <root>
        <mxCell id="0" />
        <mxCell id="1" parent="0" />
        <mxCell id="node7" value="&lt;p style=&quot;margin:0px;margin-top:4px;text-align:center;&quot;&gt;&lt;b&gt;Chat&lt;/b&gt;&lt;/p&gt;&lt;hr size=&quot;1&quot;/&gt;" style="verticalAlign=top;align=left;overflow=fill;fontSize=14;fontFamily=Helvetica;html=1;rounded=1;shadow=0;comic=0;labelBackgroundColor=none;strokeWidth=1;fillColor=#FAE5C7;strokeColor=#0F8B8D;fontColor=#143642;" parent="1" vertex="1">
          <mxGeometry x="1251" y="475" width="79" height="31" as="geometry" />
        </mxCell>
        <mxCell id="node21" value="&lt;p style=&quot;margin:0px;margin-top:4px;text-align:center;&quot;&gt;&lt;b&gt;ChatGUI&lt;/b&gt;&lt;/p&gt;&lt;hr size=&quot;1&quot;/&gt;" style="verticalAlign=top;align=left;overflow=fill;fontSize=14;fontFamily=Helvetica;html=1;rounded=1;shadow=0;comic=0;labelBackgroundColor=none;strokeWidth=1;fillColor=#FAE5C7;strokeColor=#0F8B8D;fontColor=#143642;" parent="1" vertex="1">
          <mxGeometry x="-116" y="772" width="102" height="31" as="geometry" />
        </mxCell>
        <mxCell id="node31" value="&lt;p style=&quot;margin:0px;margin-top:4px;text-align:center;&quot;&gt;&lt;b&gt;ChatRoom&lt;/b&gt;&lt;/p&gt;&lt;hr size=&quot;1&quot;/&gt;" style="verticalAlign=top;align=left;overflow=fill;fontSize=14;fontFamily=Helvetica;html=1;rounded=1;shadow=0;comic=0;labelBackgroundColor=none;strokeWidth=1;fillColor=#FAE5C7;strokeColor=#0F8B8D;fontColor=#143642;" parent="1" vertex="1">
          <mxGeometry x="1793" y="302" width="118" height="31" as="geometry" />
        </mxCell>
        <mxCell id="node25" value="&lt;p style=&quot;margin:0px;margin-top:4px;text-align:center;&quot;&gt;&lt;b&gt;ChatRoomListCellRenderer&lt;/b&gt;&lt;/p&gt;&lt;hr size=&quot;1&quot;/&gt;" style="verticalAlign=top;align=left;overflow=fill;fontSize=14;fontFamily=Helvetica;html=1;rounded=1;shadow=0;comic=0;labelBackgroundColor=none;strokeWidth=1;fillColor=#FAE5C7;strokeColor=#0F8B8D;fontColor=#143642;" parent="1" vertex="1">
          <mxGeometry x="1013" y="475" width="218" height="31" as="geometry" />
        </mxCell>
        <mxCell id="node2" value="&lt;p style=&quot;margin:0px;margin-top:4px;text-align:center;&quot;&gt;&lt;b&gt;ChatRoomStorage&lt;/b&gt;&lt;/p&gt;&lt;hr size=&quot;1&quot;/&gt;" style="verticalAlign=top;align=left;overflow=fill;fontSize=14;fontFamily=Helvetica;html=1;rounded=1;shadow=0;comic=0;labelBackgroundColor=none;strokeWidth=1;fillColor=#FAE5C7;strokeColor=#0F8B8D;fontColor=#143642;" parent="1" vertex="1">
          <mxGeometry x="1856" y="475" width="168" height="31" as="geometry" />
        </mxCell>
        <mxCell id="node3" value="&lt;p style=&quot;margin:0px;margin-top:4px;text-align:center;&quot;&gt;&lt;b&gt;ChatRoomStorageTest&lt;/b&gt;&lt;/p&gt;&lt;hr size=&quot;1&quot;/&gt;" style="verticalAlign=top;align=left;overflow=fill;fontSize=14;fontFamily=Helvetica;html=1;rounded=1;shadow=0;comic=0;labelBackgroundColor=none;strokeWidth=1;fillColor=#FAE5C7;strokeColor=#0F8B8D;fontColor=#143642;" parent="1" vertex="1">
          <mxGeometry x="2061" y="598" width="194" height="31" as="geometry" />
        </mxCell>
        <mxCell id="node19" value="&lt;p style=&quot;margin:0px;margin-top:4px;text-align:center;&quot;&gt;&lt;b&gt;ChatRoomTest&lt;/b&gt;&lt;/p&gt;&lt;hr size=&quot;1&quot;/&gt;" style="verticalAlign=top;align=left;overflow=fill;fontSize=14;fontFamily=Helvetica;html=1;rounded=1;shadow=0;comic=0;labelBackgroundColor=none;strokeWidth=1;fillColor=#FAE5C7;strokeColor=#0F8B8D;fontColor=#143642;" parent="1" vertex="1">
          <mxGeometry x="2044" y="475" width="144" height="31" as="geometry" />
        </mxCell>
        <mxCell id="node13" value="&lt;p style=&quot;margin:0px;margin-top:4px;text-align:center;&quot;&gt;&lt;b&gt;Client&lt;/b&gt;&lt;/p&gt;&lt;hr size=&quot;1&quot;/&gt;" style="verticalAlign=top;align=left;overflow=fill;fontSize=14;fontFamily=Helvetica;html=1;rounded=1;shadow=0;comic=0;labelBackgroundColor=none;strokeWidth=1;fillColor=#FAE5C7;strokeColor=#0F8B8D;fontColor=#143642;" parent="1" vertex="1">
          <mxGeometry x="173" y="302" width="86" height="31" as="geometry" />
        </mxCell>
        <mxCell id="node17" value="&lt;p style=&quot;margin:0px;margin-top:4px;text-align:center;&quot;&gt;&lt;b&gt;ClientHandler&lt;/b&gt;&lt;/p&gt;&lt;hr size=&quot;1&quot;/&gt;" style="verticalAlign=top;align=left;overflow=fill;fontSize=14;fontFamily=Helvetica;html=1;rounded=1;shadow=0;comic=0;labelBackgroundColor=none;strokeWidth=1;fillColor=#FAE5C7;strokeColor=#0F8B8D;fontColor=#143642;" parent="1" vertex="1">
          <mxGeometry x="2333" y="598" width="135" height="31" as="geometry" />
        </mxCell>
        <mxCell id="node32" value="&lt;p style=&quot;margin:0px;margin-top:4px;text-align:center;&quot;&gt;&lt;b&gt;CreateNewChatRoom&lt;/b&gt;&lt;/p&gt;&lt;hr size=&quot;1&quot;/&gt;" style="verticalAlign=top;align=left;overflow=fill;fontSize=14;fontFamily=Helvetica;html=1;rounded=1;shadow=0;comic=0;labelBackgroundColor=none;strokeWidth=1;fillColor=#FAE5C7;strokeColor=#0F8B8D;fontColor=#143642;" parent="1" vertex="1">
          <mxGeometry x="906" y="219" width="187" height="31" as="geometry" />
        </mxCell>
        <mxCell id="node4" value="&lt;p style=&quot;margin:0px;margin-top:4px;text-align:center;&quot;&gt;&lt;b&gt;Dashboard&lt;/b&gt;&lt;/p&gt;&lt;hr size=&quot;1&quot;/&gt;" style="verticalAlign=top;align=left;overflow=fill;fontSize=14;fontFamily=Helvetica;html=1;rounded=1;shadow=0;comic=0;labelBackgroundColor=none;strokeWidth=1;fillColor=#FAE5C7;strokeColor=#0F8B8D;fontColor=#143642;" parent="1" vertex="1">
          <mxGeometry x="1166" y="598" width="121" height="31" as="geometry" />
        </mxCell>
        <mxCell id="node16" value="&lt;p style=&quot;margin:0px;margin-top:4px;text-align:center;&quot;&gt;&lt;i&gt;&amp;lt;&amp;lt;interface&amp;gt;&amp;gt;&lt;/i&gt;&lt;br/&gt;&lt;b&gt;DataHandler&lt;/b&gt;&lt;/p&gt;&lt;hr size=&quot;1&quot;/&gt;" style="verticalAlign=top;align=left;overflow=fill;fontSize=14;fontFamily=Helvetica;html=1;rounded=1;shadow=0;comic=0;labelBackgroundColor=none;strokeWidth=1;fillColor=#FAE5C7;strokeColor=#0F8B8D;fontColor=#143642;" parent="1" vertex="1">
          <mxGeometry x="1059" y="-15" width="130" height="36" as="geometry" />
        </mxCell>
        <mxCell id="node11" value="&lt;p style=&quot;margin:0px;margin-top:4px;text-align:center;&quot;&gt;&lt;b&gt;FetchAllChatRooms&lt;/b&gt;&lt;/p&gt;&lt;hr size=&quot;1&quot;/&gt;" style="verticalAlign=top;align=left;overflow=fill;fontSize=14;fontFamily=Helvetica;html=1;rounded=1;shadow=0;comic=0;labelBackgroundColor=none;strokeWidth=1;fillColor=#FAE5C7;strokeColor=#0F8B8D;fontColor=#143642;" parent="1" vertex="1">
          <mxGeometry x="93" y="219" width="174" height="31" as="geometry" />
        </mxCell>
        <mxCell id="node34" value="&lt;p style=&quot;margin:0px;margin-top:4px;text-align:center;&quot;&gt;&lt;b&gt;FetchAllUser&lt;/b&gt;&lt;/p&gt;&lt;hr size=&quot;1&quot;/&gt;" style="verticalAlign=top;align=left;overflow=fill;fontSize=14;fontFamily=Helvetica;html=1;rounded=1;shadow=0;comic=0;labelBackgroundColor=none;strokeWidth=1;fillColor=#FAE5C7;strokeColor=#0F8B8D;fontColor=#143642;" parent="1" vertex="1">
          <mxGeometry x="222" y="106" width="128" height="31" as="geometry" />
        </mxCell>
        <mxCell id="node9" value="&lt;p style=&quot;margin:0px;margin-top:4px;text-align:center;&quot;&gt;&lt;b&gt;FetchChatRoom&lt;/b&gt;&lt;/p&gt;&lt;hr size=&quot;1&quot;/&gt;" style="verticalAlign=top;align=left;overflow=fill;fontSize=14;fontFamily=Helvetica;html=1;rounded=1;shadow=0;comic=0;labelBackgroundColor=none;strokeWidth=1;fillColor=#FAE5C7;strokeColor=#0F8B8D;fontColor=#143642;" parent="1" vertex="1">
          <mxGeometry x="1254" y="106" width="152" height="31" as="geometry" />
        </mxCell>
        <mxCell id="node33" value="&lt;p style=&quot;margin:0px;margin-top:4px;text-align:center;&quot;&gt;&lt;b&gt;FetchMessages&lt;/b&gt;&lt;/p&gt;&lt;hr size=&quot;1&quot;/&gt;" style="verticalAlign=top;align=left;overflow=fill;fontSize=14;fontFamily=Helvetica;html=1;rounded=1;shadow=0;comic=0;labelBackgroundColor=none;strokeWidth=1;fillColor=#FAE5C7;strokeColor=#0F8B8D;fontColor=#143642;" parent="1" vertex="1">
          <mxGeometry x="1030" y="106" width="146" height="31" as="geometry" />
        </mxCell>
        <mxCell id="node15" value="&lt;p style=&quot;margin:0px;margin-top:4px;text-align:center;&quot;&gt;&lt;b&gt;ImageMessage&lt;/b&gt;&lt;/p&gt;&lt;hr size=&quot;1&quot;/&gt;" style="verticalAlign=top;align=left;overflow=fill;fontSize=14;fontFamily=Helvetica;html=1;rounded=1;shadow=0;comic=0;labelBackgroundColor=none;strokeWidth=1;fillColor=#FAE5C7;strokeColor=#0F8B8D;fontColor=#143642;" parent="1" vertex="1">
          <mxGeometry x="1413" y="219" width="146" height="31" as="geometry" />
        </mxCell>
        <mxCell id="node38" value="&lt;p style=&quot;margin:0px;margin-top:4px;text-align:center;&quot;&gt;&lt;b&gt;ImageMessageBuilder&lt;/b&gt;&lt;/p&gt;&lt;hr size=&quot;1&quot;/&gt;" style="verticalAlign=top;align=left;overflow=fill;fontSize=14;fontFamily=Helvetica;html=1;rounded=1;shadow=0;comic=0;labelBackgroundColor=none;strokeWidth=1;fillColor=#FAE5C7;strokeColor=#0F8B8D;fontColor=#143642;" parent="1" vertex="1">
          <mxGeometry x="1560" y="302" width="190" height="31" as="geometry" />
        </mxCell>
        <mxCell id="node40" value="&lt;p style=&quot;margin:0px;margin-top:4px;text-align:center;&quot;&gt;&lt;b&gt;LoginBuilder&lt;/b&gt;&lt;/p&gt;&lt;hr size=&quot;1&quot;/&gt;" style="verticalAlign=top;align=left;overflow=fill;fontSize=14;fontFamily=Helvetica;html=1;rounded=1;shadow=0;comic=0;labelBackgroundColor=none;strokeWidth=1;fillColor=#FAE5C7;strokeColor=#0F8B8D;fontColor=#143642;" parent="1" vertex="1">
          <mxGeometry x="-56" y="219" width="129" height="31" as="geometry" />
        </mxCell>
        <mxCell id="node6" value="&lt;p style=&quot;margin:0px;margin-top:4px;text-align:center;&quot;&gt;&lt;b&gt;LoginRequest&lt;/b&gt;&lt;/p&gt;&lt;hr size=&quot;1&quot;/&gt;" style="verticalAlign=top;align=left;overflow=fill;fontSize=14;fontFamily=Helvetica;html=1;rounded=1;shadow=0;comic=0;labelBackgroundColor=none;strokeWidth=1;fillColor=#FAE5C7;strokeColor=#0F8B8D;fontColor=#143642;" parent="1" vertex="1">
          <mxGeometry x="-58" y="106" width="137" height="31" as="geometry" />
        </mxCell>
        <mxCell id="node14" value="&lt;p style=&quot;margin:0px;margin-top:4px;text-align:center;&quot;&gt;&lt;b&gt;LoginWindow&lt;/b&gt;&lt;/p&gt;&lt;hr size=&quot;1&quot;/&gt;" style="verticalAlign=top;align=left;overflow=fill;fontSize=14;fontFamily=Helvetica;html=1;rounded=1;shadow=0;comic=0;labelBackgroundColor=none;strokeWidth=1;fillColor=#FAE5C7;strokeColor=#0F8B8D;fontColor=#143642;" parent="1" vertex="1">
          <mxGeometry x="-37" y="681" width="138" height="31" as="geometry" />
        </mxCell>
        <mxCell id="node18" value="&lt;p style=&quot;margin:0px;margin-top:4px;text-align:center;&quot;&gt;&lt;i&gt;&amp;lt;&amp;lt;interface&amp;gt;&amp;gt;&lt;/i&gt;&lt;br/&gt;&lt;b&gt;Message&lt;/b&gt;&lt;/p&gt;&lt;hr size=&quot;1&quot;/&gt;" style="verticalAlign=top;align=left;overflow=fill;fontSize=14;fontFamily=Helvetica;html=1;rounded=1;shadow=0;comic=0;labelBackgroundColor=none;strokeWidth=1;fillColor=#FAE5C7;strokeColor=#0F8B8D;fontColor=#143642;" parent="1" vertex="1">
          <mxGeometry x="1568" y="106" width="106" height="36" as="geometry" />
        </mxCell>
        <mxCell id="node0" value="&lt;p style=&quot;margin:0px;margin-top:4px;text-align:center;&quot;&gt;&lt;b&gt;MessageListCellRenderer&lt;/b&gt;&lt;/p&gt;&lt;hr size=&quot;1&quot;/&gt;" style="verticalAlign=top;align=left;overflow=fill;fontSize=14;fontFamily=Helvetica;html=1;rounded=1;shadow=0;comic=0;labelBackgroundColor=none;strokeWidth=1;fillColor=#FAE5C7;strokeColor=#0F8B8D;fontColor=#143642;" parent="1" vertex="1">
          <mxGeometry x="1334" y="302" width="206" height="31" as="geometry" />
        </mxCell>
        <mxCell id="node35" value="&lt;p style=&quot;margin:0px;margin-top:4px;text-align:center;&quot;&gt;&lt;b&gt;RegisterBuilder&lt;/b&gt;&lt;/p&gt;&lt;hr size=&quot;1&quot;/&gt;" style="verticalAlign=top;align=left;overflow=fill;fontSize=14;fontFamily=Helvetica;html=1;rounded=1;shadow=0;comic=0;labelBackgroundColor=none;strokeWidth=1;fillColor=#FAE5C7;strokeColor=#0F8B8D;fontColor=#143642;" parent="1" vertex="1">
          <mxGeometry x="2608" y="219" width="145" height="31" as="geometry" />
        </mxCell>
        <mxCell id="node30" value="&lt;p style=&quot;margin:0px;margin-top:4px;text-align:center;&quot;&gt;&lt;b&gt;RegisterRequest&lt;/b&gt;&lt;/p&gt;&lt;hr size=&quot;1&quot;/&gt;" style="verticalAlign=top;align=left;overflow=fill;fontSize=14;fontFamily=Helvetica;html=1;rounded=1;shadow=0;comic=0;labelBackgroundColor=none;strokeWidth=1;fillColor=#FAE5C7;strokeColor=#0F8B8D;fontColor=#143642;" parent="1" vertex="1">
          <mxGeometry x="2604" y="106" width="153" height="31" as="geometry" />
        </mxCell>
        <mxCell id="node1" value="&lt;p style=&quot;margin:0px;margin-top:4px;text-align:center;&quot;&gt;&lt;b&gt;RegisteredUser&lt;/b&gt;&lt;/p&gt;&lt;hr size=&quot;1&quot;/&gt;" style="verticalAlign=top;align=left;overflow=fill;fontSize=14;fontFamily=Helvetica;html=1;rounded=1;shadow=0;comic=0;labelBackgroundColor=none;strokeWidth=1;fillColor=#FAE5C7;strokeColor=#0F8B8D;fontColor=#143642;" parent="1" vertex="1">
          <mxGeometry x="2267" y="106" width="146" height="31" as="geometry" />
        </mxCell>
        <mxCell id="node36" value="&lt;p style=&quot;margin:0px;margin-top:4px;text-align:center;&quot;&gt;&lt;b&gt;RegisteredUserBuilder&lt;/b&gt;&lt;/p&gt;&lt;hr size=&quot;1&quot;/&gt;" style="verticalAlign=top;align=left;overflow=fill;fontSize=14;fontFamily=Helvetica;html=1;rounded=1;shadow=0;comic=0;labelBackgroundColor=none;strokeWidth=1;fillColor=#FAE5C7;strokeColor=#0F8B8D;fontColor=#143642;" parent="1" vertex="1">
          <mxGeometry x="2343" y="302" width="189" height="31" as="geometry" />
        </mxCell>
        <mxCell id="node29" value="&lt;p style=&quot;margin:0px;margin-top:4px;text-align:center;&quot;&gt;&lt;b&gt;SendMessage&lt;/b&gt;&lt;/p&gt;&lt;hr size=&quot;1&quot;/&gt;" style="verticalAlign=top;align=left;overflow=fill;fontSize=14;fontFamily=Helvetica;html=1;rounded=1;shadow=0;comic=0;labelBackgroundColor=none;strokeWidth=1;fillColor=#FAE5C7;strokeColor=#0F8B8D;fontColor=#143642;" parent="1" vertex="1">
          <mxGeometry x="1114" y="219" width="138" height="31" as="geometry" />
        </mxCell>
        <mxCell id="node27" value="&lt;p style=&quot;margin:0px;margin-top:4px;text-align:center;&quot;&gt;&lt;b&gt;Server&lt;/b&gt;&lt;/p&gt;&lt;hr size=&quot;1&quot;/&gt;" style="verticalAlign=top;align=left;overflow=fill;fontSize=14;fontFamily=Helvetica;html=1;rounded=1;shadow=0;comic=0;labelBackgroundColor=none;strokeWidth=1;fillColor=#FAE5C7;strokeColor=#0F8B8D;fontColor=#143642;" parent="1" vertex="1">
          <mxGeometry x="2372" y="681" width="90" height="31" as="geometry" />
        </mxCell>
        <mxCell id="node10" value="&lt;p style=&quot;margin:0px;margin-top:4px;text-align:center;&quot;&gt;&lt;b&gt;TextMessage&lt;/b&gt;&lt;/p&gt;&lt;hr size=&quot;1&quot;/&gt;" style="verticalAlign=top;align=left;overflow=fill;fontSize=14;fontFamily=Helvetica;html=1;rounded=1;shadow=0;comic=0;labelBackgroundColor=none;strokeWidth=1;fillColor=#FAE5C7;strokeColor=#0F8B8D;fontColor=#143642;" parent="1" vertex="1">
          <mxGeometry x="2066" y="219" width="132" height="31" as="geometry" />
        </mxCell>
        <mxCell id="node39" value="&lt;p style=&quot;margin:0px;margin-top:4px;text-align:center;&quot;&gt;&lt;b&gt;TextMessageBuilder&lt;/b&gt;&lt;/p&gt;&lt;hr size=&quot;1&quot;/&gt;" style="verticalAlign=top;align=left;overflow=fill;fontSize=14;fontFamily=Helvetica;html=1;rounded=1;shadow=0;comic=0;labelBackgroundColor=none;strokeWidth=1;fillColor=#FAE5C7;strokeColor=#0F8B8D;fontColor=#143642;" parent="1" vertex="1">
          <mxGeometry x="2096" y="302" width="175" height="31" as="geometry" />
        </mxCell>
        <mxCell id="node23" value="&lt;p style=&quot;margin:0px;margin-top:4px;text-align:center;&quot;&gt;&lt;b&gt;TextMessageTest&lt;/b&gt;&lt;/p&gt;&lt;hr size=&quot;1&quot;/&gt;" style="verticalAlign=top;align=left;overflow=fill;fontSize=14;fontFamily=Helvetica;html=1;rounded=1;shadow=0;comic=0;labelBackgroundColor=none;strokeWidth=1;fillColor=#FAE5C7;strokeColor=#0F8B8D;fontColor=#143642;" parent="1" vertex="1">
          <mxGeometry x="2313" y="475" width="158" height="31" as="geometry" />
        </mxCell>
        <mxCell id="node8" value="&lt;p style=&quot;margin:0px;margin-top:4px;text-align:center;&quot;&gt;&lt;i&gt;&amp;lt;&amp;lt;interface&amp;gt;&amp;gt;&lt;/i&gt;&lt;br/&gt;&lt;b&gt;User&lt;/b&gt;&lt;/p&gt;&lt;hr size=&quot;1&quot;/&gt;" style="verticalAlign=top;align=left;overflow=fill;fontSize=14;fontFamily=Helvetica;html=1;rounded=1;shadow=0;comic=0;labelBackgroundColor=none;strokeWidth=1;fillColor=#FAE5C7;strokeColor=#0F8B8D;fontColor=#143642;" parent="1" vertex="1">
          <mxGeometry x="2301" y="-15" width="78" height="36" as="geometry" />
        </mxCell>
        <mxCell id="node12" value="&lt;p style=&quot;margin:0px;margin-top:4px;text-align:center;&quot;&gt;&lt;b&gt;UserCreation&lt;/b&gt;&lt;/p&gt;&lt;hr size=&quot;1&quot;/&gt;" style="verticalAlign=top;align=left;overflow=fill;fontSize=14;fontFamily=Helvetica;html=1;rounded=1;shadow=0;comic=0;labelBackgroundColor=none;strokeWidth=1;fillColor=#FAE5C7;strokeColor=#0F8B8D;fontColor=#143642;" parent="1" vertex="1">
          <mxGeometry x="887" y="772" width="131" height="31" as="geometry" />
        </mxCell>
        <mxCell id="node24" value="&lt;p style=&quot;margin:0px;margin-top:4px;text-align:center;&quot;&gt;&lt;b&gt;UserStorage&lt;/b&gt;&lt;/p&gt;&lt;hr size=&quot;1&quot;/&gt;" style="verticalAlign=top;align=left;overflow=fill;fontSize=14;fontFamily=Helvetica;html=1;rounded=1;shadow=0;comic=0;labelBackgroundColor=none;strokeWidth=1;fillColor=#FAE5C7;strokeColor=#0F8B8D;fontColor=#143642;" parent="1" vertex="1">
          <mxGeometry x="2492" y="475" width="128" height="31" as="geometry" />
        </mxCell>
        <mxCell id="node5" value="&lt;p style=&quot;margin:0px;margin-top:4px;text-align:center;&quot;&gt;&lt;b&gt;UsernameListCellRenderer&lt;/b&gt;&lt;/p&gt;&lt;hr size=&quot;1&quot;/&gt;" style="verticalAlign=top;align=left;overflow=fill;fontSize=14;fontFamily=Helvetica;html=1;rounded=1;shadow=0;comic=0;labelBackgroundColor=none;strokeWidth=1;fillColor=#FAE5C7;strokeColor=#0F8B8D;fontColor=#143642;" parent="1" vertex="1">
          <mxGeometry x="779" y="475" width="214" height="31" as="geometry" />
        </mxCell>
        <mxCell id="node28" value="&lt;p style=&quot;margin:0px;margin-top:4px;text-align:center;&quot;&gt;&lt;b&gt;UsernameListSelectionModel&lt;/b&gt;&lt;/p&gt;&lt;hr size=&quot;1&quot;/&gt;" style="verticalAlign=top;align=left;overflow=fill;fontSize=14;fontFamily=Helvetica;html=1;rounded=1;shadow=0;comic=0;labelBackgroundColor=none;strokeWidth=1;fillColor=#FAE5C7;strokeColor=#0F8B8D;fontColor=#143642;" parent="1" vertex="1">
          <mxGeometry x="527" y="475" width="232" height="31" as="geometry" />
        </mxCell>
        <mxCell id="edge71" value="" style="html=1;rounded=1;edgeStyle=orthogonalEdgeStyle;dashed=0;startArrow=diamondThinstartSize=12;endArrow=openThin;endSize=12;strokeColor=#A8201A;exitX=0.690;exitY=1.002;exitDx=0;exitDy=0;entryX=0.388;entryY=1.002;entryDx=0;entryDy=0;labelBackgroundColor=none;fontColor=default;" parent="1" source="node7" target="node31" edge="1">
          <mxGeometry width="50" height="50" relative="1" as="geometry">
            <Array as="points">
              <mxPoint x="1305" y="527" />
              <mxPoint x="1839" y="527" />
            </Array>
          </mxGeometry>
        </mxCell>
        <mxCell id="label426" value="1" style="edgeLabel;resizable=0;html=1;align=left;verticalAlign=top;strokeColor=#0F8B8D;labelBackgroundColor=none;fontColor=#143642;rounded=1;" parent="edge71" vertex="1" connectable="0">
          <mxGeometry x="1305" y="506" as="geometry" />
        </mxCell>
        <mxCell id="label430" value="1" style="edgeLabel;resizable=0;html=1;align=left;verticalAlign=top;strokeColor=#0F8B8D;labelBackgroundColor=none;fontColor=#143642;rounded=1;" parent="edge71" vertex="1" connectable="0">
          <mxGeometry x="1802" y="358" as="geometry" />
        </mxCell>
        <mxCell id="label431" value="displayedChatroom" style="edgeLabel;resizable=0;html=1;align=left;verticalAlign=top;strokeColor=#0F8B8D;labelBackgroundColor=none;fontColor=#143642;rounded=1;" parent="edge71" vertex="1" connectable="0">
          <mxGeometry x="1839" y="403" as="geometry" />
        </mxCell>
        <mxCell id="edge79" value="" style="html=1;rounded=1;edgeStyle=orthogonalEdgeStyle;dashed=0;startArrow=diamondThinstartSize=12;endArrow=openThin;endSize=12;strokeColor=#A8201A;exitX=0.880;exitY=1.001;exitDx=0;exitDy=0;entryX=0.326;entryY=1.001;entryDx=0;entryDy=0;labelBackgroundColor=none;fontColor=default;" parent="1" source="node7" target="node13" edge="1">
          <mxGeometry width="50" height="50" relative="1" as="geometry">
            <Array as="points">
              <mxPoint x="1320" y="654" />
              <mxPoint x="201" y="654" />
            </Array>
          </mxGeometry>
        </mxCell>
        <mxCell id="label474" value="1" style="edgeLabel;resizable=0;html=1;align=left;verticalAlign=top;strokeColor=#0F8B8D;labelBackgroundColor=none;fontColor=#143642;rounded=1;" parent="edge79" vertex="1" connectable="0">
          <mxGeometry x="205" y="553" as="geometry" />
        </mxCell>
        <mxCell id="label478" value="1" style="edgeLabel;resizable=0;html=1;align=left;verticalAlign=top;strokeColor=#0F8B8D;labelBackgroundColor=none;fontColor=#143642;rounded=1;" parent="edge79" vertex="1" connectable="0">
          <mxGeometry x="190" y="644" as="geometry" />
        </mxCell>
        <mxCell id="label479" value="client" style="edgeLabel;resizable=0;html=1;align=left;verticalAlign=top;strokeColor=#0F8B8D;labelBackgroundColor=none;fontColor=#143642;rounded=1;" parent="edge79" vertex="1" connectable="0">
          <mxGeometry x="184" y="339" as="geometry" />
        </mxCell>
        <mxCell id="edge55" value="" style="html=1;rounded=1;edgeStyle=orthogonalEdgeStyle;dashed=1;startArrow=none;endArrow=openThin;endSize=12;strokeColor=#A8201A;exitX=1.000;exitY=0.500;exitDx=0;exitDy=0;entryX=0.376;entryY=1.001;entryDx=0;entryDy=0;labelBackgroundColor=none;fontColor=default;" parent="1" source="node7" target="node4" edge="1">
          <mxGeometry width="50" height="50" relative="1" as="geometry">
            <Array as="points">
              <mxPoint x="1347" y="490" />
              <mxPoint x="1347" y="741" />
              <mxPoint x="1211" y="741" />
            </Array>
          </mxGeometry>
        </mxCell>
        <mxCell id="label332" value="«create»" style="edgeLabel;resizable=0;html=1;align=left;verticalAlign=top;strokeColor=#0F8B8D;labelBackgroundColor=none;fontColor=#143642;rounded=1;" parent="edge55" vertex="1" connectable="0">
          <mxGeometry x="1297" y="647" as="geometry" />
        </mxCell>
        <mxCell id="edge46" value="" style="html=1;rounded=1;edgeStyle=orthogonalEdgeStyle;dashed=1;startArrow=none;endArrow=openThin;endSize=12;strokeColor=#A8201A;exitX=0.177;exitY=0.001;exitDx=0;exitDy=0;entryX=0.524;entryY=1.001;entryDx=0;entryDy=0;labelBackgroundColor=none;fontColor=default;" parent="1" source="node7" target="node33" edge="1">
          <mxGeometry width="50" height="50" relative="1" as="geometry">
            <Array as="points">
              <mxPoint x="1265" y="151" />
              <mxPoint x="1107" y="151" />
            </Array>
          </mxGeometry>
        </mxCell>
        <mxCell id="label278" value="«create»" style="edgeLabel;resizable=0;html=1;align=left;verticalAlign=top;strokeColor=#0F8B8D;labelBackgroundColor=none;fontColor=#143642;rounded=1;" parent="edge46" vertex="1" connectable="0">
          <mxGeometry x="1082" y="140" as="geometry" />
        </mxCell>
        <mxCell id="edge32" value="" style="html=1;rounded=1;edgeStyle=orthogonalEdgeStyle;dashed=1;startArrow=none;endArrow=openThin;endSize=12;strokeColor=#A8201A;exitX=0.120;exitY=1.001;exitDx=0;exitDy=0;entryX=0.500;entryY=1.001;entryDx=0;entryDy=0;labelBackgroundColor=none;fontColor=default;" parent="1" source="node7" target="node38" edge="1">
          <mxGeometry width="50" height="50" relative="1" as="geometry">
            <Array as="points">
              <mxPoint x="1260" y="574" />
              <mxPoint x="1655" y="574" />
            </Array>
          </mxGeometry>
        </mxCell>
        <mxCell id="label194" value="«create»" style="edgeLabel;resizable=0;html=1;align=left;verticalAlign=top;strokeColor=#0F8B8D;labelBackgroundColor=none;fontColor=#143642;rounded=1;" parent="edge32" vertex="1" connectable="0">
          <mxGeometry x="1620" y="507" as="geometry" />
        </mxCell>
        <mxCell id="edge67" value="" style="html=1;rounded=1;edgeStyle=orthogonalEdgeStyle;dashed=1;startArrow=none;endArrow=openThin;endSize=12;strokeColor=#A8201A;exitX=0.690;exitY=0.001;exitDx=0;exitDy=0;entryX=0.000;entryY=0.500;entryDx=0;entryDy=0;labelBackgroundColor=none;fontColor=default;" parent="1" source="node7" target="node0" edge="1">
          <mxGeometry width="50" height="50" relative="1" as="geometry">
            <Array as="points">
              <mxPoint x="1305" y="317" />
            </Array>
          </mxGeometry>
        </mxCell>
        <mxCell id="label404" value="«create»" style="edgeLabel;resizable=0;html=1;align=left;verticalAlign=top;strokeColor=#0F8B8D;labelBackgroundColor=none;fontColor=#143642;rounded=1;" parent="edge67" vertex="1" connectable="0">
          <mxGeometry x="1290" y="282" as="geometry" />
        </mxCell>
        <mxCell id="edge37" value="" style="html=1;rounded=1;edgeStyle=orthogonalEdgeStyle;dashed=0;startArrow=diamondThinstartSize=12;endArrow=openThin;endSize=12;strokeColor=#A8201A;exitX=0.500;exitY=1.002;exitDx=0;exitDy=0;entryX=0.397;entryY=1.001;entryDx=0;entryDy=0;labelBackgroundColor=none;fontColor=default;" parent="1" source="node7" target="node1" edge="1">
          <mxGeometry width="50" height="50" relative="1" as="geometry">
            <Array as="points">
              <mxPoint x="1290" y="551" />
              <mxPoint x="1771" y="551" />
              <mxPoint x="1771" y="203" />
              <mxPoint x="2325" y="203" />
            </Array>
          </mxGeometry>
        </mxCell>
        <mxCell id="label222" value="1" style="edgeLabel;resizable=0;html=1;align=left;verticalAlign=top;strokeColor=#0F8B8D;labelBackgroundColor=none;fontColor=#143642;rounded=1;" parent="edge37" vertex="1" connectable="0">
          <mxGeometry x="1405" y="531" as="geometry" />
        </mxCell>
        <mxCell id="label226" value="1" style="edgeLabel;resizable=0;html=1;align=left;verticalAlign=top;strokeColor=#0F8B8D;labelBackgroundColor=none;fontColor=#143642;rounded=1;" parent="edge37" vertex="1" connectable="0">
          <mxGeometry x="2314" y="125" as="geometry" />
        </mxCell>
        <mxCell id="label227" value="user" style="edgeLabel;resizable=0;html=1;align=left;verticalAlign=top;strokeColor=#0F8B8D;labelBackgroundColor=none;fontColor=#143642;rounded=1;" parent="edge37" vertex="1" connectable="0">
          <mxGeometry x="2325" y="193" as="geometry" />
        </mxCell>
        <mxCell id="edge76" value="" style="html=1;rounded=1;edgeStyle=orthogonalEdgeStyle;dashed=1;startArrow=none;endArrow=openThin;endSize=12;strokeColor=#A8201A;exitX=0.367;exitY=0.001;exitDx=0;exitDy=0;entryX=1.000;entryY=0.500;entryDx=0;entryDy=0;labelBackgroundColor=none;fontColor=default;" parent="1" source="node7" target="node29" edge="1">
          <mxGeometry width="50" height="50" relative="1" as="geometry">
            <Array as="points">
              <mxPoint x="1280" y="234" />
            </Array>
          </mxGeometry>
        </mxCell>
        <mxCell id="label458" value="«create»" style="edgeLabel;resizable=0;html=1;align=left;verticalAlign=top;strokeColor=#0F8B8D;labelBackgroundColor=none;fontColor=#143642;rounded=1;" parent="edge76" vertex="1" connectable="0">
          <mxGeometry x="1248" y="249" as="geometry" />
        </mxCell>
        <mxCell id="edge30" value="" style="html=1;rounded=1;edgeStyle=orthogonalEdgeStyle;dashed=1;startArrow=none;endArrow=openThin;endSize=12;strokeColor=#A8201A;exitX=0.353;exitY=0.001;exitDx=0;exitDy=0;entryX=0.000;entryY=0.500;entryDx=0;entryDy=0;labelBackgroundColor=none;fontColor=default;" parent="1" source="node21" target="node13" edge="1">
          <mxGeometry width="50" height="50" relative="1" as="geometry">
            <Array as="points">
              <mxPoint x="-80" y="317" />
            </Array>
          </mxGeometry>
        </mxCell>
        <mxCell id="label182" value="«create»" style="edgeLabel;resizable=0;html=1;align=left;verticalAlign=top;strokeColor=#0F8B8D;labelBackgroundColor=none;fontColor=#143642;rounded=1;" parent="edge30" vertex="1" connectable="0">
          <mxGeometry x="6" y="297" as="geometry" />
        </mxCell>
        <mxCell id="edge21" value="" style="html=1;rounded=1;edgeStyle=orthogonalEdgeStyle;dashed=1;startArrow=none;endArrow=openThin;endSize=12;strokeColor=#A8201A;exitX=0.500;exitY=0.001;exitDx=0;exitDy=0;entryX=0.609;entryY=1.002;entryDx=0;entryDy=0;labelBackgroundColor=none;fontColor=default;" parent="1" source="node21" target="node14" edge="1">
          <mxGeometry width="50" height="50" relative="1" as="geometry">
            <Array as="points">
              <mxPoint x="-65" y="756" />
              <mxPoint x="47" y="756" />
            </Array>
          </mxGeometry>
        </mxCell>
        <mxCell id="label128" value="«create»" style="edgeLabel;resizable=0;html=1;align=left;verticalAlign=top;strokeColor=#0F8B8D;labelBackgroundColor=none;fontColor=#143642;rounded=1;" parent="edge21" vertex="1" connectable="0">
          <mxGeometry x="-34" y="736" as="geometry" />
        </mxCell>
        <mxCell id="edge29" value="" style="html=1;rounded=1;edgeStyle=orthogonalEdgeStyle;dashed=0;startArrow=diamondThinstartSize=12;endArrow=openThin;endSize=12;strokeColor=#A8201A;exitX=0.500;exitY=0.001;exitDx=0;exitDy=0;entryX=0.500;entryY=1.001;entryDx=0;entryDy=0;labelBackgroundColor=none;fontColor=default;" parent="1" source="node31" target="node18" edge="1">
          <mxGeometry width="50" height="50" relative="1" as="geometry">
            <Array as="points">
              <mxPoint x="1852" y="286" />
              <mxPoint x="1621" y="286" />
            </Array>
          </mxGeometry>
        </mxCell>
        <mxCell id="label174" value="1" style="edgeLabel;resizable=0;html=1;align=left;verticalAlign=top;strokeColor=#0F8B8D;labelBackgroundColor=none;fontColor=#143642;rounded=1;" parent="edge29" vertex="1" connectable="0">
          <mxGeometry x="1841" y="281" as="geometry" />
        </mxCell>
        <mxCell id="label178" value="*" style="edgeLabel;resizable=0;html=1;align=left;verticalAlign=top;strokeColor=#0F8B8D;labelBackgroundColor=none;fontColor=#143642;rounded=1;" parent="edge29" vertex="1" connectable="0">
          <mxGeometry x="1694" y="226" as="geometry" />
        </mxCell>
        <mxCell id="label179" value="messages" style="edgeLabel;resizable=0;html=1;align=left;verticalAlign=top;strokeColor=#0F8B8D;labelBackgroundColor=none;fontColor=#143642;rounded=1;" parent="edge29" vertex="1" connectable="0">
          <mxGeometry x="1620" y="261" as="geometry" />
        </mxCell>
        <mxCell id="edge22" value="" style="html=1;rounded=1;edgeStyle=orthogonalEdgeStyle;dashed=0;startArrow=diamondThinstartSize=12;endArrow=openThin;endSize=12;strokeColor=#A8201A;exitX=0.000;exitY=0.500;exitDx=0;exitDy=0;entryX=0.397;entryY=1.001;entryDx=0;entryDy=0;labelBackgroundColor=none;fontColor=default;" parent="1" source="node31" target="node1" edge="1">
          <mxGeometry width="50" height="50" relative="1" as="geometry">
            <Array as="points">
              <mxPoint x="1771" y="317" />
              <mxPoint x="1771" y="203" />
              <mxPoint x="2325" y="203" />
            </Array>
          </mxGeometry>
        </mxCell>
        <mxCell id="label132" value="1" style="edgeLabel;resizable=0;html=1;align=left;verticalAlign=top;strokeColor=#0F8B8D;labelBackgroundColor=none;fontColor=#143642;rounded=1;" parent="edge22" vertex="1" connectable="0">
          <mxGeometry x="1776" y="312" as="geometry" />
        </mxCell>
        <mxCell id="label136" value="*" style="edgeLabel;resizable=0;html=1;align=left;verticalAlign=top;strokeColor=#0F8B8D;labelBackgroundColor=none;fontColor=#143642;rounded=1;" parent="edge22" vertex="1" connectable="0">
          <mxGeometry x="2321" y="146" as="geometry" />
        </mxCell>
        <mxCell id="label137" value="users" style="edgeLabel;resizable=0;html=1;align=left;verticalAlign=top;strokeColor=#0F8B8D;labelBackgroundColor=none;fontColor=#143642;rounded=1;" parent="edge22" vertex="1" connectable="0">
          <mxGeometry x="2325" y="140" as="geometry" />
        </mxCell>
        <mxCell id="edge45" value="" style="html=1;rounded=1;edgeStyle=orthogonalEdgeStyle;dashed=1;startArrow=none;endArrow=openThin;endSize=12;strokeColor=#A8201A;exitX=0.800;exitY=0.001;exitDx=0;exitDy=0;entryX=0.515;entryY=1.001;entryDx=0;entryDy=0;labelBackgroundColor=none;fontColor=default;" parent="1" source="node2" target="node31" edge="1">
          <mxGeometry width="50" height="50" relative="1" as="geometry">
            <Array as="points">
              <mxPoint x="1991" y="419" />
              <mxPoint x="1854" y="419" />
            </Array>
          </mxGeometry>
        </mxCell>
        <mxCell id="label272" value="«create»" style="edgeLabel;resizable=0;html=1;align=left;verticalAlign=top;strokeColor=#0F8B8D;labelBackgroundColor=none;fontColor=#143642;rounded=1;" parent="edge45" vertex="1" connectable="0">
          <mxGeometry x="1872" y="409" as="geometry" />
        </mxCell>
        <mxCell id="edge59" value="" style="html=1;rounded=1;edgeStyle=orthogonalEdgeStyle;dashed=0;startArrow=diamondThinstartSize=12;endArrow=openThin;endSize=12;strokeColor=#A8201A;exitX=0.411;exitY=1.002;exitDx=0;exitDy=0;entryX=0.388;entryY=1.002;entryDx=0;entryDy=0;labelBackgroundColor=none;fontColor=default;" parent="1" source="node2" target="node31" edge="1">
          <mxGeometry width="50" height="50" relative="1" as="geometry">
            <Array as="points">
              <mxPoint x="1925" y="527" />
              <mxPoint x="1839" y="527" />
            </Array>
          </mxGeometry>
        </mxCell>
        <mxCell id="label354" value="1" style="edgeLabel;resizable=0;html=1;align=left;verticalAlign=top;strokeColor=#0F8B8D;labelBackgroundColor=none;fontColor=#143642;rounded=1;" parent="edge59" vertex="1" connectable="0">
          <mxGeometry x="1846" y="517" as="geometry" />
        </mxCell>
        <mxCell id="label358" value="*" style="edgeLabel;resizable=0;html=1;align=left;verticalAlign=top;strokeColor=#0F8B8D;labelBackgroundColor=none;fontColor=#143642;rounded=1;" parent="edge59" vertex="1" connectable="0">
          <mxGeometry x="1834" y="510" as="geometry" />
        </mxCell>
        <mxCell id="label359" value="chatRoomCentralStorage" style="edgeLabel;resizable=0;html=1;align=left;verticalAlign=top;strokeColor=#0F8B8D;labelBackgroundColor=none;fontColor=#143642;rounded=1;" parent="edge59" vertex="1" connectable="0">
          <mxGeometry x="1814" y="452" as="geometry" />
        </mxCell>
        <mxCell id="edge85" value="" style="html=1;rounded=1;edgeStyle=orthogonalEdgeStyle;dashed=0;startArrow=diamondThinstartSize=12;endArrow=openThin;endSize=12;strokeColor=#A8201A;exitX=0.500;exitY=1.002;exitDx=0;exitDy=0;entryX=0.397;entryY=1.001;entryDx=0;entryDy=0;labelBackgroundColor=none;fontColor=default;" parent="1" source="node2" target="node1" edge="1">
          <mxGeometry width="50" height="50" relative="1" as="geometry">
            <Array as="points">
              <mxPoint x="1940" y="551" />
              <mxPoint x="1771" y="551" />
              <mxPoint x="1771" y="203" />
              <mxPoint x="2325" y="203" />
            </Array>
          </mxGeometry>
        </mxCell>
        <mxCell id="label510" value="1" style="edgeLabel;resizable=0;html=1;align=left;verticalAlign=top;strokeColor=#0F8B8D;labelBackgroundColor=none;fontColor=#143642;rounded=1;" parent="edge85" vertex="1" connectable="0">
          <mxGeometry x="1850" y="551" as="geometry" />
        </mxCell>
        <mxCell id="label514" value="*" style="edgeLabel;resizable=0;html=1;align=left;verticalAlign=top;strokeColor=#0F8B8D;labelBackgroundColor=none;fontColor=#143642;rounded=1;" parent="edge85" vertex="1" connectable="0">
          <mxGeometry x="2311" y="153" as="geometry" />
        </mxCell>
        <mxCell id="label515" value="chatRoomsThisUsersIsIn" style="edgeLabel;resizable=0;html=1;align=left;verticalAlign=top;strokeColor=#0F8B8D;labelBackgroundColor=none;fontColor=#143642;rounded=1;" parent="edge85" vertex="1" connectable="0">
          <mxGeometry x="2365" y="140" as="geometry" />
        </mxCell>
        <mxCell id="edge43" value="" style="html=1;rounded=1;edgeStyle=orthogonalEdgeStyle;dashed=0;startArrow=diamondThinstartSize=12;endArrow=openThin;endSize=12;strokeColor=#A8201A;exitX=0.577;exitY=0.001;exitDx=0;exitDy=0;entryX=0.388;entryY=1.002;entryDx=0;entryDy=0;labelBackgroundColor=none;fontColor=default;" parent="1" source="node3" target="node31" edge="1">
          <mxGeometry width="50" height="50" relative="1" as="geometry">
            <Array as="points">
              <mxPoint x="2173" y="527" />
              <mxPoint x="1839" y="527" />
            </Array>
          </mxGeometry>
        </mxCell>
        <mxCell id="label258" value="1" style="edgeLabel;resizable=0;html=1;align=left;verticalAlign=top;strokeColor=#0F8B8D;labelBackgroundColor=none;fontColor=#143642;rounded=1;" parent="edge43" vertex="1" connectable="0">
          <mxGeometry x="1798" y="493" as="geometry" />
        </mxCell>
        <mxCell id="label262" value="1" style="edgeLabel;resizable=0;html=1;align=left;verticalAlign=top;strokeColor=#0F8B8D;labelBackgroundColor=none;fontColor=#143642;rounded=1;" parent="edge43" vertex="1" connectable="0">
          <mxGeometry x="1828" y="336" as="geometry" />
        </mxCell>
        <mxCell id="label263" value="chatRoom1" style="edgeLabel;resizable=0;html=1;align=left;verticalAlign=top;strokeColor=#0F8B8D;labelBackgroundColor=none;fontColor=#143642;rounded=1;" parent="edge43" vertex="1" connectable="0">
          <mxGeometry x="1839" y="419" as="geometry" />
        </mxCell>
        <mxCell id="edge65" value="" style="html=1;rounded=1;edgeStyle=orthogonalEdgeStyle;dashed=0;startArrow=diamondThinstartSize=12;endArrow=openThin;endSize=12;strokeColor=#A8201A;exitX=0.695;exitY=0.001;exitDx=0;exitDy=0;entryX=0.500;entryY=0.001;entryDx=0;entryDy=0;labelBackgroundColor=none;fontColor=default;" parent="1" source="node3" target="node2" edge="1">
          <mxGeometry width="50" height="50" relative="1" as="geometry">
            <Array as="points">
              <mxPoint x="2196" y="527" />
              <mxPoint x="2206" y="527" />
              <mxPoint x="2206" y="436" />
              <mxPoint x="1940" y="436" />
            </Array>
          </mxGeometry>
        </mxCell>
        <mxCell id="label390" value="1" style="edgeLabel;resizable=0;html=1;align=left;verticalAlign=top;strokeColor=#0F8B8D;labelBackgroundColor=none;fontColor=#143642;rounded=1;" parent="edge65" vertex="1" connectable="0">
          <mxGeometry x="1929" y="438" as="geometry" />
        </mxCell>
        <mxCell id="label394" value="1" style="edgeLabel;resizable=0;html=1;align=left;verticalAlign=top;strokeColor=#0F8B8D;labelBackgroundColor=none;fontColor=#143642;rounded=1;" parent="edge65" vertex="1" connectable="0">
          <mxGeometry x="1940" y="450" as="geometry" />
        </mxCell>
        <mxCell id="label395" value="storage" style="edgeLabel;resizable=0;html=1;align=left;verticalAlign=top;strokeColor=#0F8B8D;labelBackgroundColor=none;fontColor=#143642;rounded=1;" parent="edge65" vertex="1" connectable="0">
          <mxGeometry x="1906" y="448" as="geometry" />
        </mxCell>
        <mxCell id="edge69" value="" style="html=1;rounded=1;edgeStyle=orthogonalEdgeStyle;dashed=1;startArrow=none;endArrow=openThin;endSize=12;strokeColor=#A8201A;exitX=0.577;exitY=1.001;exitDx=0;exitDy=0;entryX=0.589;entryY=1.001;entryDx=0;entryDy=0;labelBackgroundColor=none;fontColor=default;" parent="1" source="node3" target="node2" edge="1">
          <mxGeometry width="50" height="50" relative="1" as="geometry">
            <Array as="points">
              <mxPoint x="2173" y="654" />
              <mxPoint x="1955" y="654" />
            </Array>
          </mxGeometry>
        </mxCell>
        <mxCell id="label416" value="«create»" style="edgeLabel;resizable=0;html=1;align=left;verticalAlign=top;strokeColor=#0F8B8D;labelBackgroundColor=none;fontColor=#143642;rounded=1;" parent="edge69" vertex="1" connectable="0">
          <mxGeometry x="2075" y="634" as="geometry" />
        </mxCell>
        <mxCell id="edge28" value="" style="html=1;rounded=1;edgeStyle=orthogonalEdgeStyle;dashed=0;startArrow=diamondThinstartSize=12;endArrow=openThin;endSize=12;strokeColor=#A8201A;exitX=0.500;exitY=1.001;exitDx=0;exitDy=0;entryX=0.500;entryY=1.001;entryDx=0;entryDy=0;labelBackgroundColor=none;fontColor=default;" parent="1" source="node3" target="node18" edge="1">
          <mxGeometry width="50" height="50" relative="1" as="geometry">
            <Array as="points">
              <mxPoint x="2158" y="972" />
              <mxPoint x="-133" y="972" />
              <mxPoint x="-133" y="270" />
              <mxPoint x="1168" y="270" />
              <mxPoint x="1168" y="286" />
              <mxPoint x="1621" y="286" />
            </Array>
          </mxGeometry>
        </mxCell>
        <mxCell id="label168" value="1" style="edgeLabel;resizable=0;html=1;align=left;verticalAlign=top;strokeColor=#0F8B8D;labelBackgroundColor=none;fontColor=#143642;rounded=1;" parent="edge28" vertex="1" connectable="0">
          <mxGeometry x="625" y="962" as="geometry" />
        </mxCell>
        <mxCell id="label172" value="1" style="edgeLabel;resizable=0;html=1;align=left;verticalAlign=top;strokeColor=#0F8B8D;labelBackgroundColor=none;fontColor=#143642;rounded=1;" parent="edge28" vertex="1" connectable="0">
          <mxGeometry x="1586" y="276" as="geometry" />
        </mxCell>
        <mxCell id="label173" value="message1" style="edgeLabel;resizable=0;html=1;align=left;verticalAlign=top;strokeColor=#0F8B8D;labelBackgroundColor=none;fontColor=#143642;rounded=1;" parent="edge28" vertex="1" connectable="0">
          <mxGeometry x="1144" y="240" as="geometry" />
        </mxCell>
        <mxCell id="edge27" value="" style="html=1;rounded=1;edgeStyle=orthogonalEdgeStyle;dashed=0;startArrow=diamondThinstartSize=12;endArrow=openThin;endSize=12;strokeColor=#A8201A;exitX=0.500;exitY=0.002;exitDx=0;exitDy=0;entryX=0.397;entryY=1.001;entryDx=0;entryDy=0;labelBackgroundColor=none;fontColor=default;" parent="1" source="node3" target="node1" edge="1">
          <mxGeometry width="50" height="50" relative="1" as="geometry">
            <Array as="points">
              <mxPoint x="2158" y="551" />
              <mxPoint x="1771" y="551" />
              <mxPoint x="1771" y="203" />
              <mxPoint x="2325" y="203" />
            </Array>
          </mxGeometry>
        </mxCell>
        <mxCell id="label162" value="1" style="edgeLabel;resizable=0;html=1;align=left;verticalAlign=top;strokeColor=#0F8B8D;labelBackgroundColor=none;fontColor=#143642;rounded=1;" parent="edge27" vertex="1" connectable="0">
          <mxGeometry x="2043" y="183" as="geometry" />
        </mxCell>
        <mxCell id="label166" value="1" style="edgeLabel;resizable=0;html=1;align=left;verticalAlign=top;strokeColor=#0F8B8D;labelBackgroundColor=none;fontColor=#143642;rounded=1;" parent="edge27" vertex="1" connectable="0">
          <mxGeometry x="2320" y="192" as="geometry" />
        </mxCell>
        <mxCell id="label167" value="user1" style="edgeLabel;resizable=0;html=1;align=left;verticalAlign=top;strokeColor=#0F8B8D;labelBackgroundColor=none;fontColor=#143642;rounded=1;" parent="edge27" vertex="1" connectable="0">
          <mxGeometry x="2259" y="181" as="geometry" />
        </mxCell>
        <mxCell id="edge35" value="" style="html=1;rounded=1;edgeStyle=orthogonalEdgeStyle;dashed=1;startArrow=none;endArrow=openThin;endSize=12;strokeColor=#A8201A;exitX=1.000;exitY=0.500;exitDx=0;exitDy=0;entryX=0.000;entryY=0.500;entryDx=0;entryDy=0;labelBackgroundColor=none;fontColor=default;" parent="1" source="node3" target="node36" edge="1">
          <mxGeometry width="50" height="50" relative="1" as="geometry">
            <Array as="points">
              <mxPoint x="2291" y="613" />
              <mxPoint x="2291" y="317" />
            </Array>
          </mxGeometry>
        </mxCell>
        <mxCell id="label212" value="«create»" style="edgeLabel;resizable=0;html=1;align=left;verticalAlign=top;strokeColor=#0F8B8D;labelBackgroundColor=none;fontColor=#143642;rounded=1;" parent="edge35" vertex="1" connectable="0">
          <mxGeometry x="2244" y="333" as="geometry" />
        </mxCell>
        <mxCell id="edge60" value="" style="html=1;rounded=1;edgeStyle=orthogonalEdgeStyle;dashed=1;startArrow=none;endArrow=openThin;endSize=12;strokeColor=#A8201A;exitX=0.423;exitY=0.002;exitDx=0;exitDy=0;entryX=0.712;entryY=1.001;entryDx=0;entryDy=0;labelBackgroundColor=none;fontColor=default;" parent="1" source="node3" target="node39" edge="1">
          <mxGeometry width="50" height="50" relative="1" as="geometry">
            <Array as="points">
              <mxPoint x="2143" y="574" />
              <mxPoint x="1748" y="574" />
              <mxPoint x="1748" y="451" />
              <mxPoint x="2221" y="451" />
            </Array>
          </mxGeometry>
        </mxCell>
        <mxCell id="label362" value="«create»" style="edgeLabel;resizable=0;html=1;align=left;verticalAlign=top;strokeColor=#0F8B8D;labelBackgroundColor=none;fontColor=#143642;rounded=1;" parent="edge60" vertex="1" connectable="0">
          <mxGeometry x="1698" y="503" as="geometry" />
        </mxCell>
        <mxCell id="edge62" value="" style="html=1;rounded=1;edgeStyle=orthogonalEdgeStyle;dashed=0;startArrow=diamondThinstartSize=12;endArrow=openThin;endSize=12;strokeColor=#A8201A;exitX=0.396;exitY=1.002;exitDx=0;exitDy=0;entryX=0.388;entryY=1.002;entryDx=0;entryDy=0;labelBackgroundColor=none;fontColor=default;" parent="1" source="node19" target="node31" edge="1">
          <mxGeometry width="50" height="50" relative="1" as="geometry">
            <Array as="points">
              <mxPoint x="2101" y="527" />
              <mxPoint x="1839" y="527" />
            </Array>
          </mxGeometry>
        </mxCell>
        <mxCell id="label372" value="1" style="edgeLabel;resizable=0;html=1;align=left;verticalAlign=top;strokeColor=#0F8B8D;labelBackgroundColor=none;fontColor=#143642;rounded=1;" parent="edge62" vertex="1" connectable="0">
          <mxGeometry x="1812" y="517" as="geometry" />
        </mxCell>
        <mxCell id="label376" value="1" style="edgeLabel;resizable=0;html=1;align=left;verticalAlign=top;strokeColor=#0F8B8D;labelBackgroundColor=none;fontColor=#143642;rounded=1;" parent="edge62" vertex="1" connectable="0">
          <mxGeometry x="1788" y="388" as="geometry" />
        </mxCell>
        <mxCell id="label377" value="chatRoom1" style="edgeLabel;resizable=0;html=1;align=left;verticalAlign=top;strokeColor=#0F8B8D;labelBackgroundColor=none;fontColor=#143642;rounded=1;" parent="edge62" vertex="1" connectable="0">
          <mxGeometry x="1771" y="336" as="geometry" />
        </mxCell>
        <mxCell id="edge75" value="" style="html=1;rounded=1;edgeStyle=orthogonalEdgeStyle;dashed=1;startArrow=none;endArrow=openThin;endSize=12;strokeColor=#A8201A;exitX=0.396;exitY=0.001;exitDx=0;exitDy=0;entryX=0.515;entryY=1.001;entryDx=0;entryDy=0;labelBackgroundColor=none;fontColor=default;" parent="1" source="node19" target="node31" edge="1">
          <mxGeometry width="50" height="50" relative="1" as="geometry">
            <Array as="points">
              <mxPoint x="2101" y="419" />
              <mxPoint x="1854" y="419" />
            </Array>
          </mxGeometry>
        </mxCell>
        <mxCell id="label452" value="«create»" style="edgeLabel;resizable=0;html=1;align=left;verticalAlign=top;strokeColor=#0F8B8D;labelBackgroundColor=none;fontColor=#143642;rounded=1;" parent="edge75" vertex="1" connectable="0">
          <mxGeometry x="1854" y="354" as="geometry" />
        </mxCell>
        <mxCell id="edge54" value="" style="html=1;rounded=1;edgeStyle=orthogonalEdgeStyle;dashed=0;startArrow=diamondThinstartSize=12;endArrow=openThin;endSize=12;strokeColor=#A8201A;exitX=0.500;exitY=1.002;exitDx=0;exitDy=0;entryX=0.397;entryY=1.001;entryDx=0;entryDy=0;labelBackgroundColor=none;fontColor=default;" parent="1" source="node19" target="node1" edge="1">
          <mxGeometry width="50" height="50" relative="1" as="geometry">
            <Array as="points">
              <mxPoint x="2116" y="551" />
              <mxPoint x="1771" y="551" />
              <mxPoint x="1771" y="203" />
              <mxPoint x="2325" y="203" />
            </Array>
          </mxGeometry>
        </mxCell>
        <mxCell id="label324" value="1" style="edgeLabel;resizable=0;html=1;align=left;verticalAlign=top;strokeColor=#0F8B8D;labelBackgroundColor=none;fontColor=#143642;rounded=1;" parent="edge54" vertex="1" connectable="0">
          <mxGeometry x="2111" y="547" as="geometry" />
        </mxCell>
        <mxCell id="label328" value="1" style="edgeLabel;resizable=0;html=1;align=left;verticalAlign=top;strokeColor=#0F8B8D;labelBackgroundColor=none;fontColor=#143642;rounded=1;" parent="edge54" vertex="1" connectable="0">
          <mxGeometry x="2320" y="141" as="geometry" />
        </mxCell>
        <mxCell id="label329" value="user1" style="edgeLabel;resizable=0;html=1;align=left;verticalAlign=top;strokeColor=#0F8B8D;labelBackgroundColor=none;fontColor=#143642;rounded=1;" parent="edge54" vertex="1" connectable="0">
          <mxGeometry x="2325" y="125" as="geometry" />
        </mxCell>
        <mxCell id="edge70" value="" style="html=1;rounded=1;edgeStyle=orthogonalEdgeStyle;dashed=1;startArrow=none;endArrow=openThin;endSize=12;strokeColor=#A8201A;exitX=1.000;exitY=0.500;exitDx=0;exitDy=0;entryX=0.000;entryY=0.500;entryDx=0;entryDy=0;labelBackgroundColor=none;fontColor=default;" parent="1" source="node19" target="node36" edge="1">
          <mxGeometry width="50" height="50" relative="1" as="geometry">
            <Array as="points">
              <mxPoint x="2291" y="490" />
              <mxPoint x="2291" y="317" />
            </Array>
          </mxGeometry>
        </mxCell>
        <mxCell id="label422" value="«create»" style="edgeLabel;resizable=0;html=1;align=left;verticalAlign=top;strokeColor=#0F8B8D;labelBackgroundColor=none;fontColor=#143642;rounded=1;" parent="edge70" vertex="1" connectable="0">
          <mxGeometry x="2266" y="444" as="geometry" />
        </mxCell>
        <mxCell id="edge81" value="" style="html=1;rounded=1;edgeStyle=orthogonalEdgeStyle;dashed=0;startArrow=diamondThinstartSize=12;endArrow=openThin;endSize=12;strokeColor=#A8201A;exitX=0.239;exitY=0.001;exitDx=0;exitDy=0;entryX=0.092;entryY=1.001;entryDx=0;entryDy=0;labelBackgroundColor=none;fontColor=default;" parent="1" source="node19" target="node10" edge="1">
          <mxGeometry width="50" height="50" relative="1" as="geometry">
            <Array as="points" />
          </mxGeometry>
        </mxCell>
        <mxCell id="label486" value="1" style="edgeLabel;resizable=0;html=1;align=left;verticalAlign=top;strokeColor=#0F8B8D;labelBackgroundColor=none;fontColor=#143642;rounded=1;" parent="edge81" vertex="1" connectable="0">
          <mxGeometry x="2073" y="405" as="geometry" />
        </mxCell>
        <mxCell id="label490" value="1" style="edgeLabel;resizable=0;html=1;align=left;verticalAlign=top;strokeColor=#0F8B8D;labelBackgroundColor=none;fontColor=#143642;rounded=1;" parent="edge81" vertex="1" connectable="0">
          <mxGeometry x="2065" y="334" as="geometry" />
        </mxCell>
        <mxCell id="label491" value="message1" style="edgeLabel;resizable=0;html=1;align=left;verticalAlign=top;strokeColor=#0F8B8D;labelBackgroundColor=none;fontColor=#143642;rounded=1;" parent="edge81" vertex="1" connectable="0">
          <mxGeometry x="2078" y="253" as="geometry" />
        </mxCell>
        <mxCell id="edge34" value="" style="html=1;rounded=1;edgeStyle=orthogonalEdgeStyle;dashed=1;startArrow=none;endArrow=openThin;endSize=12;strokeColor=#A8201A;exitX=0.500;exitY=0.002;exitDx=0;exitDy=0;entryX=0.712;entryY=1.001;entryDx=0;entryDy=0;labelBackgroundColor=none;fontColor=default;" parent="1" source="node19" target="node39" edge="1">
          <mxGeometry width="50" height="50" relative="1" as="geometry">
            <Array as="points">
              <mxPoint x="2116" y="451" />
              <mxPoint x="2221" y="451" />
            </Array>
          </mxGeometry>
        </mxCell>
        <mxCell id="label206" value="«create»" style="edgeLabel;resizable=0;html=1;align=left;verticalAlign=top;strokeColor=#0F8B8D;labelBackgroundColor=none;fontColor=#143642;rounded=1;" parent="edge34" vertex="1" connectable="0">
          <mxGeometry x="2171" y="401" as="geometry" />
        </mxCell>
        <mxCell id="edge84" value="" style="html=1;rounded=1;edgeStyle=orthogonalEdgeStyle;dashed=1;startArrow=none;endArrow=openThin;endSize=12;strokeColor=#A8201A;exitX=0.500;exitY=0.001;exitDx=0;exitDy=0;entryX=0.708;entryY=1.001;entryDx=0;entryDy=0;labelBackgroundColor=none;fontColor=default;" parent="1" source="node13" target="node11" edge="1">
          <mxGeometry width="50" height="50" relative="1" as="geometry">
            <Array as="points" />
          </mxGeometry>
        </mxCell>
        <mxCell id="label506" value="«create»" style="edgeLabel;resizable=0;html=1;align=left;verticalAlign=top;strokeColor=#0F8B8D;labelBackgroundColor=none;fontColor=#143642;rounded=1;" parent="edge84" vertex="1" connectable="0">
          <mxGeometry x="191" y="228" as="geometry" />
        </mxCell>
        <mxCell id="edge78" value="" style="html=1;rounded=1;edgeStyle=orthogonalEdgeStyle;dashed=0;startArrow=diamondThinstartSize=12;endArrow=openThin;endSize=12;strokeColor=#A8201A;exitX=0.500;exitY=1.001;exitDx=0;exitDy=0;entryX=0.397;entryY=1.001;entryDx=0;entryDy=0;labelBackgroundColor=none;fontColor=default;" parent="1" source="node13" target="node1" edge="1">
          <mxGeometry width="50" height="50" relative="1" as="geometry">
            <Array as="points">
              <mxPoint x="216" y="403" />
              <mxPoint x="1771" y="403" />
              <mxPoint x="1771" y="203" />
              <mxPoint x="2325" y="203" />
            </Array>
          </mxGeometry>
        </mxCell>
        <mxCell id="label468" value="1" style="edgeLabel;resizable=0;html=1;align=left;verticalAlign=top;strokeColor=#0F8B8D;labelBackgroundColor=none;fontColor=#143642;rounded=1;" parent="edge78" vertex="1" connectable="0">
          <mxGeometry x="599" y="383" as="geometry" />
        </mxCell>
        <mxCell id="label472" value="1" style="edgeLabel;resizable=0;html=1;align=left;verticalAlign=top;strokeColor=#0F8B8D;labelBackgroundColor=none;fontColor=#143642;rounded=1;" parent="edge78" vertex="1" connectable="0">
          <mxGeometry x="2274" y="140" as="geometry" />
        </mxCell>
        <mxCell id="label473" value="user" style="edgeLabel;resizable=0;html=1;align=left;verticalAlign=top;strokeColor=#0F8B8D;labelBackgroundColor=none;fontColor=#143642;rounded=1;" parent="edge78" vertex="1" connectable="0">
          <mxGeometry x="2321" y="153" as="geometry" />
        </mxCell>
        <mxCell id="edge63" value="" style="html=1;rounded=1;edgeStyle=orthogonalEdgeStyle;dashed=0;startArrow=diamondThinstartSize=12;endArrow=openThin;endSize=12;strokeColor=#A8201A;exitX=0.544;exitY=0.001;exitDx=0;exitDy=0;entryX=0.500;entryY=0.001;entryDx=0;entryDy=0;labelBackgroundColor=none;fontColor=default;" parent="1" source="node17" target="node2" edge="1">
          <mxGeometry width="50" height="50" relative="1" as="geometry">
            <Array as="points">
              <mxPoint x="2407" y="527" />
              <mxPoint x="2206" y="527" />
              <mxPoint x="2206" y="436" />
              <mxPoint x="1940" y="436" />
            </Array>
          </mxGeometry>
        </mxCell>
        <mxCell id="label378" value="1" style="edgeLabel;resizable=0;html=1;align=left;verticalAlign=top;strokeColor=#0F8B8D;labelBackgroundColor=none;fontColor=#143642;rounded=1;" parent="edge63" vertex="1" connectable="0">
          <mxGeometry x="2334" y="507" as="geometry" />
        </mxCell>
        <mxCell id="label382" value="1" style="edgeLabel;resizable=0;html=1;align=left;verticalAlign=top;strokeColor=#0F8B8D;labelBackgroundColor=none;fontColor=#143642;rounded=1;" parent="edge63" vertex="1" connectable="0">
          <mxGeometry x="1979" y="416" as="geometry" />
        </mxCell>
        <mxCell id="label383" value="chatRoomStorage" style="edgeLabel;resizable=0;html=1;align=left;verticalAlign=top;strokeColor=#0F8B8D;labelBackgroundColor=none;fontColor=#143642;rounded=1;" parent="edge63" vertex="1" connectable="0">
          <mxGeometry x="1888" y="416" as="geometry" />
        </mxCell>
        <mxCell id="edge20" value="" style="html=1;rounded=1;edgeStyle=orthogonalEdgeStyle;dashed=0;startArrow=diamondThinstartSize=12;endArrow=openThin;endSize=12;strokeColor=#A8201A;exitX=1.000;exitY=0.500;exitDx=0;exitDy=0;entryX=0.383;entryY=1.001;entryDx=0;entryDy=0;labelBackgroundColor=none;fontColor=default;" parent="1" source="node17" target="node24" edge="1">
          <mxGeometry width="50" height="50" relative="1" as="geometry">
            <Array as="points">
              <mxPoint x="2541" y="613" />
            </Array>
          </mxGeometry>
        </mxCell>
        <mxCell id="label120" value="1" style="edgeLabel;resizable=0;html=1;align=left;verticalAlign=top;strokeColor=#0F8B8D;labelBackgroundColor=none;fontColor=#143642;rounded=1;" parent="edge20" vertex="1" connectable="0">
          <mxGeometry x="2530" y="528" as="geometry" />
        </mxCell>
        <mxCell id="label124" value="1" style="edgeLabel;resizable=0;html=1;align=left;verticalAlign=top;strokeColor=#0F8B8D;labelBackgroundColor=none;fontColor=#143642;rounded=1;" parent="edge20" vertex="1" connectable="0">
          <mxGeometry x="2523" y="521" as="geometry" />
        </mxCell>
        <mxCell id="label125" value="userStorage" style="edgeLabel;resizable=0;html=1;align=left;verticalAlign=top;strokeColor=#0F8B8D;labelBackgroundColor=none;fontColor=#143642;rounded=1;" parent="edge20" vertex="1" connectable="0">
          <mxGeometry x="2541" y="509" as="geometry" />
        </mxCell>
        <mxCell id="edge9" value="" style="html=1;rounded=1;edgeStyle=orthogonalEdgeStyle;dashed=1;startArrow=none;endArrow=block;endSize=12;strokeColor=#A8201A;exitX=0.250;exitY=0.001;exitDx=0;exitDy=0;entryX=0.500;entryY=1.001;entryDx=0;entryDy=0;labelBackgroundColor=none;fontColor=default;" parent="1" source="node32" target="node16" edge="1">
          <mxGeometry width="50" height="50" relative="1" as="geometry">
            <Array as="points">
              <mxPoint x="952" y="167" />
              <mxPoint x="1007" y="167" />
              <mxPoint x="1007" y="85" />
              <mxPoint x="1124" y="85" />
            </Array>
          </mxGeometry>
        </mxCell>
        <mxCell id="edge47" value="" style="html=1;rounded=1;edgeStyle=orthogonalEdgeStyle;dashed=0;startArrow=diamondThinstartSize=12;endArrow=openThin;endSize=12;strokeColor=#A8201A;exitX=0.500;exitY=0.001;exitDx=0;exitDy=0;entryX=0.397;entryY=1.001;entryDx=0;entryDy=0;labelBackgroundColor=none;fontColor=default;" parent="1" source="node32" target="node1" edge="1">
          <mxGeometry width="50" height="50" relative="1" as="geometry">
            <Array as="points">
              <mxPoint x="999" y="203" />
              <mxPoint x="2325" y="203" />
            </Array>
          </mxGeometry>
        </mxCell>
        <mxCell id="label282" value="1" style="edgeLabel;resizable=0;html=1;align=left;verticalAlign=top;strokeColor=#0F8B8D;labelBackgroundColor=none;fontColor=#143642;rounded=1;" parent="edge47" vertex="1" connectable="0">
          <mxGeometry x="988" y="199" as="geometry" />
        </mxCell>
        <mxCell id="label286" value="*" style="edgeLabel;resizable=0;html=1;align=left;verticalAlign=top;strokeColor=#0F8B8D;labelBackgroundColor=none;fontColor=#143642;rounded=1;" parent="edge47" vertex="1" connectable="0">
          <mxGeometry x="2316" y="158" as="geometry" />
        </mxCell>
        <mxCell id="label287" value="usersInChatRoom" style="edgeLabel;resizable=0;html=1;align=left;verticalAlign=top;strokeColor=#0F8B8D;labelBackgroundColor=none;fontColor=#143642;rounded=1;" parent="edge47" vertex="1" connectable="0">
          <mxGeometry x="2365" y="193" as="geometry" />
        </mxCell>
        <mxCell id="edge24" value="" style="html=1;rounded=1;edgeStyle=orthogonalEdgeStyle;dashed=1;startArrow=none;endArrow=openThin;endSize=12;strokeColor=#A8201A;exitX=0.904;exitY=0.002;exitDx=0;exitDy=0;entryX=0.310;entryY=1.002;entryDx=0;entryDy=0;labelBackgroundColor=none;fontColor=default;" parent="1" source="node4" target="node7" edge="1">
          <mxGeometry width="50" height="50" relative="1" as="geometry">
            <Array as="points" />
          </mxGeometry>
        </mxCell>
        <mxCell id="label146" value="«create»" style="edgeLabel;resizable=0;html=1;align=left;verticalAlign=top;strokeColor=#0F8B8D;labelBackgroundColor=none;fontColor=#143642;rounded=1;" parent="edge24" vertex="1" connectable="0">
          <mxGeometry x="1195" y="573" as="geometry" />
        </mxCell>
        <mxCell id="edge86" value="" style="html=1;rounded=1;edgeStyle=orthogonalEdgeStyle;dashed=0;startArrow=diamondThinstartSize=12;endArrow=openThin;endSize=12;strokeColor=#A8201A;exitX=0.376;exitY=0.001;exitDx=0;exitDy=0;entryX=0.388;entryY=1.002;entryDx=0;entryDy=0;labelBackgroundColor=none;fontColor=default;" parent="1" source="node4" target="node31" edge="1">
          <mxGeometry width="50" height="50" relative="1" as="geometry">
            <Array as="points">
              <mxPoint x="1211" y="527" />
              <mxPoint x="1839" y="527" />
            </Array>
          </mxGeometry>
        </mxCell>
        <mxCell id="label516" value="1" style="edgeLabel;resizable=0;html=1;align=left;verticalAlign=top;strokeColor=#0F8B8D;labelBackgroundColor=none;fontColor=#143642;rounded=1;" parent="edge86" vertex="1" connectable="0">
          <mxGeometry x="1206" y="507" as="geometry" />
        </mxCell>
        <mxCell id="label520" value="1" style="edgeLabel;resizable=0;html=1;align=left;verticalAlign=top;strokeColor=#0F8B8D;labelBackgroundColor=none;fontColor=#143642;rounded=1;" parent="edge86" vertex="1" connectable="0">
          <mxGeometry x="1828" y="406" as="geometry" />
        </mxCell>
        <mxCell id="label521" value="selectedChatroom" style="edgeLabel;resizable=0;html=1;align=left;verticalAlign=top;strokeColor=#0F8B8D;labelBackgroundColor=none;fontColor=#143642;rounded=1;" parent="edge86" vertex="1" connectable="0">
          <mxGeometry x="1839" y="517" as="geometry" />
        </mxCell>
        <mxCell id="edge88" value="" style="html=1;rounded=1;edgeStyle=orthogonalEdgeStyle;dashed=1;startArrow=none;endArrow=openThin;endSize=12;strokeColor=#A8201A;exitX=0.252;exitY=0.002;exitDx=0;exitDy=0;entryX=0.842;entryY=1.002;entryDx=0;entryDy=0;labelBackgroundColor=none;fontColor=default;" parent="1" source="node4" target="node25" edge="1">
          <mxGeometry width="50" height="50" relative="1" as="geometry">
            <Array as="points" />
          </mxGeometry>
        </mxCell>
        <mxCell id="label530" value="«create»" style="edgeLabel;resizable=0;html=1;align=left;verticalAlign=top;strokeColor=#0F8B8D;labelBackgroundColor=none;fontColor=#143642;rounded=1;" parent="edge88" vertex="1" connectable="0">
          <mxGeometry x="1171" y="509" as="geometry" />
        </mxCell>
        <mxCell id="edge49" value="" style="html=1;rounded=1;edgeStyle=orthogonalEdgeStyle;dashed=0;startArrow=diamondThinstartSize=12;endArrow=openThin;endSize=12;strokeColor=#A8201A;exitX=0.500;exitY=1.001;exitDx=0;exitDy=0;entryX=0.326;entryY=1.001;entryDx=0;entryDy=0;labelBackgroundColor=none;fontColor=default;" parent="1" source="node4" target="node13" edge="1">
          <mxGeometry width="50" height="50" relative="1" as="geometry">
            <Array as="points">
              <mxPoint x="1226" y="654" />
              <mxPoint x="201" y="654" />
            </Array>
          </mxGeometry>
        </mxCell>
        <mxCell id="label294" value="1" style="edgeLabel;resizable=0;html=1;align=left;verticalAlign=top;strokeColor=#0F8B8D;labelBackgroundColor=none;fontColor=#143642;rounded=1;" parent="edge49" vertex="1" connectable="0">
          <mxGeometry x="190" y="567" as="geometry" />
        </mxCell>
        <mxCell id="label298" value="1" style="edgeLabel;resizable=0;html=1;align=left;verticalAlign=top;strokeColor=#0F8B8D;labelBackgroundColor=none;fontColor=#143642;rounded=1;" parent="edge49" vertex="1" connectable="0">
          <mxGeometry x="190" y="556" as="geometry" />
        </mxCell>
        <mxCell id="label299" value="client" style="edgeLabel;resizable=0;html=1;align=left;verticalAlign=top;strokeColor=#0F8B8D;labelBackgroundColor=none;fontColor=#143642;rounded=1;" parent="edge49" vertex="1" connectable="0">
          <mxGeometry x="201" y="556" as="geometry" />
        </mxCell>
        <mxCell id="edge50" value="" style="html=1;rounded=1;edgeStyle=orthogonalEdgeStyle;dashed=1;startArrow=none;endArrow=openThin;endSize=12;strokeColor=#A8201A;exitX=0.128;exitY=0.001;exitDx=0;exitDy=0;entryX=0.000;entryY=0.500;entryDx=0;entryDy=0;labelBackgroundColor=none;fontColor=default;" parent="1" source="node4" target="node32" edge="1">
          <mxGeometry width="50" height="50" relative="1" as="geometry">
            <Array as="points">
              <mxPoint x="1181" y="536" />
              <mxPoint x="440" y="536" />
              <mxPoint x="440" y="234" />
            </Array>
          </mxGeometry>
        </mxCell>
        <mxCell id="label302" value="«create»" style="edgeLabel;resizable=0;html=1;align=left;verticalAlign=top;strokeColor=#0F8B8D;labelBackgroundColor=none;fontColor=#143642;rounded=1;" parent="edge50" vertex="1" connectable="0">
          <mxGeometry x="633" y="234" as="geometry" />
        </mxCell>
        <mxCell id="edge26" value="" style="html=1;rounded=1;edgeStyle=orthogonalEdgeStyle;dashed=1;startArrow=none;endArrow=openThin;endSize=12;strokeColor=#A8201A;exitX=0.624;exitY=1.001;exitDx=0;exitDy=0;entryX=0.839;entryY=1.001;entryDx=0;entryDy=0;labelBackgroundColor=none;fontColor=default;" parent="1" source="node4" target="node34" edge="1">
          <mxGeometry width="50" height="50" relative="1" as="geometry">
            <Array as="points">
              <mxPoint x="1241" y="704" />
              <mxPoint x="330" y="704" />
            </Array>
          </mxGeometry>
        </mxCell>
        <mxCell id="label158" value="«create»" style="edgeLabel;resizable=0;html=1;align=left;verticalAlign=top;strokeColor=#0F8B8D;labelBackgroundColor=none;fontColor=#143642;rounded=1;" parent="edge26" vertex="1" connectable="0">
          <mxGeometry x="330" y="278" as="geometry" />
        </mxCell>
        <mxCell id="edge23" value="" style="html=1;rounded=1;edgeStyle=orthogonalEdgeStyle;dashed=0;startArrow=diamondThinstartSize=12;endArrow=openThin;endSize=12;strokeColor=#A8201A;exitX=0.500;exitY=0.002;exitDx=0;exitDy=0;entryX=0.397;entryY=1.001;entryDx=0;entryDy=0;labelBackgroundColor=none;fontColor=default;" parent="1" source="node4" target="node1" edge="1">
          <mxGeometry width="50" height="50" relative="1" as="geometry">
            <Array as="points">
              <mxPoint x="1226" y="551" />
              <mxPoint x="1771" y="551" />
              <mxPoint x="1771" y="203" />
              <mxPoint x="2325" y="203" />
            </Array>
          </mxGeometry>
        </mxCell>
        <mxCell id="label138" value="1" style="edgeLabel;resizable=0;html=1;align=left;verticalAlign=top;strokeColor=#0F8B8D;labelBackgroundColor=none;fontColor=#143642;rounded=1;" parent="edge23" vertex="1" connectable="0">
          <mxGeometry x="1215" y="573" as="geometry" />
        </mxCell>
        <mxCell id="label142" value="*" style="edgeLabel;resizable=0;html=1;align=left;verticalAlign=top;strokeColor=#0F8B8D;labelBackgroundColor=none;fontColor=#143642;rounded=1;" parent="edge23" vertex="1" connectable="0">
          <mxGeometry x="2310" y="146" as="geometry" />
        </mxCell>
        <mxCell id="label143" value="selectedUsernames" style="edgeLabel;resizable=0;html=1;align=left;verticalAlign=top;strokeColor=#0F8B8D;labelBackgroundColor=none;fontColor=#143642;rounded=1;" parent="edge23" vertex="1" connectable="0">
          <mxGeometry x="2365" y="125" as="geometry" />
        </mxCell>
        <mxCell id="edge64" value="" style="html=1;rounded=1;edgeStyle=orthogonalEdgeStyle;dashed=1;startArrow=none;endArrow=openThin;endSize=12;strokeColor=#A8201A;exitX=0.000;exitY=0.500;exitDx=0;exitDy=0;entryX=0.810;entryY=1.001;entryDx=0;entryDy=0;labelBackgroundColor=none;fontColor=default;" parent="1" source="node4" target="node5" edge="1">
          <mxGeometry width="50" height="50" relative="1" as="geometry">
            <Array as="points">
              <mxPoint x="952" y="613" />
            </Array>
          </mxGeometry>
        </mxCell>
        <mxCell id="label386" value="«create»" style="edgeLabel;resizable=0;html=1;align=left;verticalAlign=top;strokeColor=#0F8B8D;labelBackgroundColor=none;fontColor=#143642;rounded=1;" parent="edge64" vertex="1" connectable="0">
          <mxGeometry x="902" y="541" as="geometry" />
        </mxCell>
        <mxCell id="edge25" value="" style="html=1;rounded=1;edgeStyle=orthogonalEdgeStyle;dashed=1;startArrow=none;endArrow=openThin;endSize=12;strokeColor=#A8201A;exitX=0.252;exitY=1.001;exitDx=0;exitDy=0;entryX=0.500;entryY=1.002;entryDx=0;entryDy=0;labelBackgroundColor=none;fontColor=default;" parent="1" source="node4" target="node28" edge="1">
          <mxGeometry width="50" height="50" relative="1" as="geometry">
            <Array as="points">
              <mxPoint x="1196" y="689" />
              <mxPoint x="643" y="689" />
            </Array>
          </mxGeometry>
        </mxCell>
        <mxCell id="label152" value="«create»" style="edgeLabel;resizable=0;html=1;align=left;verticalAlign=top;strokeColor=#0F8B8D;labelBackgroundColor=none;fontColor=#143642;rounded=1;" parent="edge25" vertex="1" connectable="0">
          <mxGeometry x="628" y="594" as="geometry" />
        </mxCell>
        <mxCell id="edge6" value="" style="html=1;rounded=1;edgeStyle=orthogonalEdgeStyle;dashed=1;startArrow=none;endArrow=block;endSize=12;strokeColor=#A8201A;exitX=0.250;exitY=0.001;exitDx=0;exitDy=0;entryX=0.500;entryY=1.001;entryDx=0;entryDy=0;labelBackgroundColor=none;fontColor=default;" parent="1" source="node11" target="node16" edge="1">
          <mxGeometry width="50" height="50" relative="1" as="geometry">
            <Array as="points">
              <mxPoint x="136" y="197" />
              <mxPoint x="162" y="197" />
              <mxPoint x="162" y="85" />
              <mxPoint x="1124" y="85" />
            </Array>
          </mxGeometry>
        </mxCell>
        <mxCell id="edge52" value="" style="html=1;rounded=1;edgeStyle=orthogonalEdgeStyle;dashed=0;startArrow=diamondThinstartSize=12;endArrow=openThin;endSize=12;strokeColor=#A8201A;exitX=0.534;exitY=0.001;exitDx=0;exitDy=0;entryX=0.397;entryY=1.001;entryDx=0;entryDy=0;labelBackgroundColor=none;fontColor=default;" parent="1" source="node11" target="node1" edge="1">
          <mxGeometry width="50" height="50" relative="1" as="geometry">
            <Array as="points">
              <mxPoint x="186" y="203" />
              <mxPoint x="2325" y="203" />
            </Array>
          </mxGeometry>
        </mxCell>
        <mxCell id="label312" value="1" style="edgeLabel;resizable=0;html=1;align=left;verticalAlign=top;strokeColor=#0F8B8D;labelBackgroundColor=none;fontColor=#143642;rounded=1;" parent="edge52" vertex="1" connectable="0">
          <mxGeometry x="175" y="199" as="geometry" />
        </mxCell>
        <mxCell id="label316" value="1" style="edgeLabel;resizable=0;html=1;align=left;verticalAlign=top;strokeColor=#0F8B8D;labelBackgroundColor=none;fontColor=#143642;rounded=1;" parent="edge52" vertex="1" connectable="0">
          <mxGeometry x="2274" y="149" as="geometry" />
        </mxCell>
        <mxCell id="label317" value="user" style="edgeLabel;resizable=0;html=1;align=left;verticalAlign=top;strokeColor=#0F8B8D;labelBackgroundColor=none;fontColor=#143642;rounded=1;" parent="edge52" vertex="1" connectable="0">
          <mxGeometry x="2325" y="149" as="geometry" />
        </mxCell>
        <mxCell id="edge10" value="" style="html=1;rounded=1;edgeStyle=orthogonalEdgeStyle;dashed=1;startArrow=none;endArrow=block;endSize=12;strokeColor=#A8201A;exitX=0.500;exitY=0.001;exitDx=0;exitDy=0;entryX=0.500;entryY=1.001;entryDx=0;entryDy=0;labelBackgroundColor=none;fontColor=default;" parent="1" source="node34" target="node16" edge="1">
          <mxGeometry width="50" height="50" relative="1" as="geometry">
            <Array as="points">
              <mxPoint x="286" y="85" />
              <mxPoint x="1124" y="85" />
            </Array>
          </mxGeometry>
        </mxCell>
        <mxCell id="edge4" value="" style="html=1;rounded=1;edgeStyle=orthogonalEdgeStyle;dashed=1;startArrow=none;endArrow=block;endSize=12;strokeColor=#A8201A;exitX=0.500;exitY=0.001;exitDx=0;exitDy=0;entryX=0.500;entryY=1.001;entryDx=0;entryDy=0;labelBackgroundColor=none;fontColor=default;" parent="1" source="node9" target="node16" edge="1">
          <mxGeometry width="50" height="50" relative="1" as="geometry">
            <Array as="points">
              <mxPoint x="1330" y="85" />
              <mxPoint x="1124" y="85" />
            </Array>
          </mxGeometry>
        </mxCell>
        <mxCell id="edge7" value="" style="html=1;rounded=1;edgeStyle=orthogonalEdgeStyle;dashed=1;startArrow=none;endArrow=block;endSize=12;strokeColor=#A8201A;exitX=0.500;exitY=0.001;exitDx=0;exitDy=0;entryX=0.500;entryY=1.001;entryDx=0;entryDy=0;labelBackgroundColor=none;fontColor=default;" parent="1" source="node33" target="node16" edge="1">
          <mxGeometry width="50" height="50" relative="1" as="geometry">
            <Array as="points">
              <mxPoint x="1103" y="85" />
              <mxPoint x="1124" y="85" />
            </Array>
          </mxGeometry>
        </mxCell>
        <mxCell id="edge13" value="" style="html=1;rounded=1;edgeStyle=orthogonalEdgeStyle;dashed=1;startArrow=none;endArrow=block;endSize=12;strokeColor=#A8201A;exitX=0.250;exitY=0.001;exitDx=0;exitDy=0;entryX=0.750;entryY=1.001;entryDx=0;entryDy=0;labelBackgroundColor=none;fontColor=default;" parent="1" source="node15" target="node18" edge="1">
          <mxGeometry width="50" height="50" relative="1" as="geometry">
            <Array as="points">
              <mxPoint x="1449" y="187" />
              <mxPoint x="1744" y="187" />
              <mxPoint x="1744" y="167" />
              <mxPoint x="1648" y="167" />
            </Array>
          </mxGeometry>
        </mxCell>
        <mxCell id="edge33" value="" style="html=1;rounded=1;edgeStyle=orthogonalEdgeStyle;dashed=0;startArrow=diamondThinstartSize=12;endArrow=openThin;endSize=12;strokeColor=#A8201A;exitX=0.500;exitY=0.001;exitDx=0;exitDy=0;entryX=0.397;entryY=1.001;entryDx=0;entryDy=0;labelBackgroundColor=none;fontColor=default;" parent="1" source="node15" target="node1" edge="1">
          <mxGeometry width="50" height="50" relative="1" as="geometry">
            <Array as="points">
              <mxPoint x="1486" y="203" />
              <mxPoint x="2325" y="203" />
            </Array>
          </mxGeometry>
        </mxCell>
        <mxCell id="label198" value="1" style="edgeLabel;resizable=0;html=1;align=left;verticalAlign=top;strokeColor=#0F8B8D;labelBackgroundColor=none;fontColor=#143642;rounded=1;" parent="edge33" vertex="1" connectable="0">
          <mxGeometry x="1475" y="201" as="geometry" />
        </mxCell>
        <mxCell id="label202" value="1" style="edgeLabel;resizable=0;html=1;align=left;verticalAlign=top;strokeColor=#0F8B8D;labelBackgroundColor=none;fontColor=#143642;rounded=1;" parent="edge33" vertex="1" connectable="0">
          <mxGeometry x="2310" y="149" as="geometry" />
        </mxCell>
        <mxCell id="label203" value="sender" style="edgeLabel;resizable=0;html=1;align=left;verticalAlign=top;strokeColor=#0F8B8D;labelBackgroundColor=none;fontColor=#143642;rounded=1;" parent="edge33" vertex="1" connectable="0">
          <mxGeometry x="2314" y="158" as="geometry" />
        </mxCell>
        <mxCell id="edge18" value="" style="html=1;rounded=1;edgeStyle=orthogonalEdgeStyle;dashed=0;startArrow=circlePlus;startFill=0;endArrow=none;strokeColor=#A8201A;exitX=0.500;exitY=0.001;exitDx=0;exitDy=0;entryX=0.750;entryY=1.001;entryDx=0;entryDy=0;labelBackgroundColor=none;fontColor=default;" parent="1" source="node38" target="node15" edge="1">
          <mxGeometry width="50" height="50" relative="1" as="geometry">
            <Array as="points">
              <mxPoint x="1655" y="270" />
              <mxPoint x="1522" y="270" />
            </Array>
          </mxGeometry>
        </mxCell>
        <mxCell id="edge39" value="" style="html=1;rounded=1;edgeStyle=orthogonalEdgeStyle;dashed=1;startArrow=none;endArrow=openThin;endSize=12;strokeColor=#A8201A;exitX=0.579;exitY=0.001;exitDx=0;exitDy=0;entryX=1.000;entryY=0.500;entryDx=0;entryDy=0;labelBackgroundColor=none;fontColor=default;" parent="1" source="node38" target="node15" edge="1">
          <mxGeometry width="50" height="50" relative="1" as="geometry">
            <Array as="points">
              <mxPoint x="1670" y="234" />
            </Array>
          </mxGeometry>
        </mxCell>
        <mxCell id="label236" value="«create»" style="edgeLabel;resizable=0;html=1;align=left;verticalAlign=top;strokeColor=#0F8B8D;labelBackgroundColor=none;fontColor=#143642;rounded=1;" parent="edge39" vertex="1" connectable="0">
          <mxGeometry x="1631" y="235" as="geometry" />
        </mxCell>
        <mxCell id="edge87" value="" style="html=1;rounded=1;edgeStyle=orthogonalEdgeStyle;dashed=0;startArrow=diamondThinstartSize=12;endArrow=openThin;endSize=12;strokeColor=#A8201A;exitX=1.000;exitY=0.500;exitDx=0;exitDy=0;entryX=0.397;entryY=1.001;entryDx=0;entryDy=0;labelBackgroundColor=none;fontColor=default;" parent="1" source="node38" target="node1" edge="1">
          <mxGeometry width="50" height="50" relative="1" as="geometry">
            <Array as="points">
              <mxPoint x="1771" y="317" />
              <mxPoint x="1771" y="203" />
              <mxPoint x="2325" y="203" />
            </Array>
          </mxGeometry>
        </mxCell>
        <mxCell id="label522" value="1" style="edgeLabel;resizable=0;html=1;align=left;verticalAlign=top;strokeColor=#0F8B8D;labelBackgroundColor=none;fontColor=#143642;rounded=1;" parent="edge87" vertex="1" connectable="0">
          <mxGeometry x="1819" y="187" as="geometry" />
        </mxCell>
        <mxCell id="label526" value="1" style="edgeLabel;resizable=0;html=1;align=left;verticalAlign=top;strokeColor=#0F8B8D;labelBackgroundColor=none;fontColor=#143642;rounded=1;" parent="edge87" vertex="1" connectable="0">
          <mxGeometry x="2292" y="146" as="geometry" />
        </mxCell>
        <mxCell id="label527" value="sender" style="edgeLabel;resizable=0;html=1;align=left;verticalAlign=top;strokeColor=#0F8B8D;labelBackgroundColor=none;fontColor=#143642;rounded=1;" parent="edge87" vertex="1" connectable="0">
          <mxGeometry x="2365" y="140" as="geometry" />
        </mxCell>
        <mxCell id="edge14" value="" style="html=1;rounded=1;edgeStyle=orthogonalEdgeStyle;dashed=0;startArrow=circlePlus;startFill=0;endArrow=none;strokeColor=#A8201A;exitX=0.750;exitY=0.001;exitDx=0;exitDy=0;entryX=0.750;entryY=1.001;entryDx=0;entryDy=0;labelBackgroundColor=none;fontColor=default;" parent="1" source="node40" target="node6" edge="1">
          <mxGeometry width="50" height="50" relative="1" as="geometry">
            <Array as="points">
              <mxPoint x="40" y="197" />
              <mxPoint x="44" y="197" />
            </Array>
          </mxGeometry>
        </mxCell>
        <mxCell id="edge66" value="" style="html=1;rounded=1;edgeStyle=orthogonalEdgeStyle;dashed=1;startArrow=none;endArrow=openThin;endSize=12;strokeColor=#A8201A;exitX=0.516;exitY=0.001;exitDx=0;exitDy=0;entryX=0.500;entryY=1.001;entryDx=0;entryDy=0;labelBackgroundColor=none;fontColor=default;" parent="1" source="node40" target="node6" edge="1">
          <mxGeometry width="50" height="50" relative="1" as="geometry">
            <Array as="points" />
          </mxGeometry>
        </mxCell>
        <mxCell id="label398" value="«create»" style="edgeLabel;resizable=0;html=1;align=left;verticalAlign=top;strokeColor=#0F8B8D;labelBackgroundColor=none;fontColor=#143642;rounded=1;" parent="edge66" vertex="1" connectable="0">
          <mxGeometry x="-40" y="167" as="geometry" />
        </mxCell>
        <mxCell id="edge3" value="" style="html=1;rounded=1;edgeStyle=orthogonalEdgeStyle;dashed=1;startArrow=none;endArrow=block;endSize=12;strokeColor=#A8201A;exitX=0.500;exitY=0.001;exitDx=0;exitDy=0;entryX=0.500;entryY=1.002;entryDx=0;entryDy=0;labelBackgroundColor=none;fontColor=default;" parent="1" source="node6" target="node16" edge="1">
          <mxGeometry width="50" height="50" relative="1" as="geometry">
            <Array as="points">
              <mxPoint x="10" y="65" />
              <mxPoint x="1124" y="65" />
            </Array>
          </mxGeometry>
        </mxCell>
        <mxCell id="edge1" value="" style="html=1;rounded=1;edgeStyle=orthogonalEdgeStyle;dashed=1;startArrow=none;endArrow=block;endSize=12;strokeColor=#A8201A;exitX=0.500;exitY=0.001;exitDx=0;exitDy=0;entryX=0.500;entryY=1.001;entryDx=0;entryDy=0;labelBackgroundColor=none;fontColor=default;" parent="1" source="node6" target="node8" edge="1">
          <mxGeometry width="50" height="50" relative="1" as="geometry">
            <Array as="points">
              <mxPoint x="10" y="75" />
              <mxPoint x="2340" y="75" />
            </Array>
          </mxGeometry>
        </mxCell>
        <mxCell id="edge80" value="" style="html=1;rounded=1;edgeStyle=orthogonalEdgeStyle;dashed=0;startArrow=diamondThinstartSize=12;endArrow=openThin;endSize=12;strokeColor=#A8201A;exitX=0.500;exitY=0.001;exitDx=0;exitDy=0;entryX=0.326;entryY=1.001;entryDx=0;entryDy=0;labelBackgroundColor=none;fontColor=default;" parent="1" source="node14" target="node13" edge="1">
          <mxGeometry width="50" height="50" relative="1" as="geometry">
            <Array as="points">
              <mxPoint x="32" y="654" />
              <mxPoint x="201" y="654" />
            </Array>
          </mxGeometry>
        </mxCell>
        <mxCell id="label480" value="1" style="edgeLabel;resizable=0;html=1;align=left;verticalAlign=top;strokeColor=#0F8B8D;labelBackgroundColor=none;fontColor=#143642;rounded=1;" parent="edge80" vertex="1" connectable="0">
          <mxGeometry x="21" y="658" as="geometry" />
        </mxCell>
        <mxCell id="label484" value="1" style="edgeLabel;resizable=0;html=1;align=left;verticalAlign=top;strokeColor=#0F8B8D;labelBackgroundColor=none;fontColor=#143642;rounded=1;" parent="edge80" vertex="1" connectable="0">
          <mxGeometry x="190" y="351" as="geometry" />
        </mxCell>
        <mxCell id="label485" value="client" style="edgeLabel;resizable=0;html=1;align=left;verticalAlign=top;strokeColor=#0F8B8D;labelBackgroundColor=none;fontColor=#143642;rounded=1;" parent="edge80" vertex="1" connectable="0">
          <mxGeometry x="201" y="351" as="geometry" />
        </mxCell>
        <mxCell id="edge40" value="" style="html=1;rounded=1;edgeStyle=orthogonalEdgeStyle;dashed=1;startArrow=none;endArrow=openThin;endSize=12;strokeColor=#A8201A;exitX=0.500;exitY=1.001;exitDx=0;exitDy=0;entryX=0.376;entryY=1.001;entryDx=0;entryDy=0;labelBackgroundColor=none;fontColor=default;" parent="1" source="node14" target="node4" edge="1">
          <mxGeometry width="50" height="50" relative="1" as="geometry">
            <Array as="points">
              <mxPoint x="32" y="741" />
              <mxPoint x="1211" y="741" />
            </Array>
          </mxGeometry>
        </mxCell>
        <mxCell id="label242" value="«create»" style="edgeLabel;resizable=0;html=1;align=left;verticalAlign=top;strokeColor=#0F8B8D;labelBackgroundColor=none;fontColor=#143642;rounded=1;" parent="edge40" vertex="1" connectable="0">
          <mxGeometry x="515" y="720" as="geometry" />
        </mxCell>
        <mxCell id="edge68" value="" style="html=1;rounded=1;edgeStyle=orthogonalEdgeStyle;dashed=1;startArrow=none;endArrow=openThin;endSize=12;strokeColor=#A8201A;exitX=0.330;exitY=0.001;exitDx=0;exitDy=0;entryX=0.500;entryY=1.001;entryDx=0;entryDy=0;labelBackgroundColor=none;fontColor=default;" parent="1" source="node14" target="node40" edge="1">
          <mxGeometry width="50" height="50" relative="1" as="geometry">
            <Array as="points" />
          </mxGeometry>
        </mxCell>
        <mxCell id="label410" value="«create»" style="edgeLabel;resizable=0;html=1;align=left;verticalAlign=top;strokeColor=#0F8B8D;labelBackgroundColor=none;fontColor=#143642;rounded=1;" parent="edge68" vertex="1" connectable="0">
          <mxGeometry x="-17" y="243" as="geometry" />
        </mxCell>
        <mxCell id="edge72" value="" style="html=1;rounded=1;edgeStyle=orthogonalEdgeStyle;dashed=1;startArrow=none;endArrow=openThin;endSize=12;strokeColor=#A8201A;exitX=0.391;exitY=1.001;exitDx=0;exitDy=0;entryX=0.000;entryY=0.500;entryDx=0;entryDy=0;labelBackgroundColor=none;fontColor=default;" parent="1" source="node14" target="node12" edge="1">
          <mxGeometry width="50" height="50" relative="1" as="geometry">
            <Array as="points">
              <mxPoint x="17" y="787" />
            </Array>
          </mxGeometry>
        </mxCell>
        <mxCell id="label434" value="«create»" style="edgeLabel;resizable=0;html=1;align=left;verticalAlign=top;strokeColor=#0F8B8D;labelBackgroundColor=none;fontColor=#143642;rounded=1;" parent="edge72" vertex="1" connectable="0">
          <mxGeometry x="862" y="737" as="geometry" />
        </mxCell>
        <mxCell id="edge17" value="" style="html=1;rounded=1;edgeStyle=orthogonalEdgeStyle;dashed=0;startArrow=circlePlus;startFill=0;endArrow=none;strokeColor=#A8201A;exitX=0.750;exitY=0.001;exitDx=0;exitDy=0;entryX=0.750;entryY=1.001;entryDx=0;entryDy=0;labelBackgroundColor=none;fontColor=default;" parent="1" source="node35" target="node30" edge="1">
          <mxGeometry width="50" height="50" relative="1" as="geometry">
            <Array as="points">
              <mxPoint x="2717" y="197" />
              <mxPoint x="2719" y="197" />
            </Array>
          </mxGeometry>
        </mxCell>
        <mxCell id="edge31" value="" style="html=1;rounded=1;edgeStyle=orthogonalEdgeStyle;dashed=1;startArrow=none;endArrow=openThin;endSize=12;strokeColor=#A8201A;exitX=0.500;exitY=0.001;exitDx=0;exitDy=0;entryX=0.500;entryY=1.001;entryDx=0;entryDy=0;labelBackgroundColor=none;fontColor=default;" parent="1" source="node35" target="node30" edge="1">
          <mxGeometry width="50" height="50" relative="1" as="geometry">
            <Array as="points" />
          </mxGeometry>
        </mxCell>
        <mxCell id="label188" value="«create»" style="edgeLabel;resizable=0;html=1;align=left;verticalAlign=top;strokeColor=#0F8B8D;labelBackgroundColor=none;fontColor=#143642;rounded=1;" parent="edge31" vertex="1" connectable="0">
          <mxGeometry x="2656" y="115" as="geometry" />
        </mxCell>
        <mxCell id="edge5" value="" style="html=1;rounded=1;edgeStyle=orthogonalEdgeStyle;dashed=1;startArrow=none;endArrow=block;endSize=12;strokeColor=#A8201A;exitX=0.500;exitY=0.001;exitDx=0;exitDy=0;entryX=0.500;entryY=1.001;entryDx=0;entryDy=0;labelBackgroundColor=none;fontColor=default;" parent="1" source="node30" target="node16" edge="1">
          <mxGeometry width="50" height="50" relative="1" as="geometry">
            <Array as="points">
              <mxPoint x="2681" y="45" />
              <mxPoint x="1124" y="45" />
            </Array>
          </mxGeometry>
        </mxCell>
        <mxCell id="edge11" value="" style="html=1;rounded=1;edgeStyle=orthogonalEdgeStyle;dashed=1;startArrow=none;endArrow=block;endSize=12;strokeColor=#A8201A;exitX=0.500;exitY=0.001;exitDx=0;exitDy=0;entryX=0.500;entryY=1.001;entryDx=0;entryDy=0;labelBackgroundColor=none;fontColor=default;" parent="1" source="node30" target="node8" edge="1">
          <mxGeometry width="50" height="50" relative="1" as="geometry">
            <Array as="points">
              <mxPoint x="2681" y="35" />
              <mxPoint x="2340" y="35" />
            </Array>
          </mxGeometry>
        </mxCell>
        <mxCell id="edge12" value="" style="html=1;rounded=1;edgeStyle=orthogonalEdgeStyle;dashed=1;startArrow=none;endArrow=block;endSize=12;strokeColor=#A8201A;exitX=0.500;exitY=0.002;exitDx=0;exitDy=0;entryX=0.500;entryY=1.001;entryDx=0;entryDy=0;labelBackgroundColor=none;fontColor=default;" parent="1" source="node1" target="node16" edge="1">
          <mxGeometry width="50" height="50" relative="1" as="geometry">
            <Array as="points">
              <mxPoint x="2340" y="55" />
              <mxPoint x="1124" y="55" />
            </Array>
          </mxGeometry>
        </mxCell>
        <mxCell id="edge0" value="" style="html=1;rounded=1;edgeStyle=orthogonalEdgeStyle;dashed=1;startArrow=none;endArrow=block;endSize=12;strokeColor=#A8201A;exitX=0.500;exitY=0.002;exitDx=0;exitDy=0;entryX=0.500;entryY=1.002;entryDx=0;entryDy=0;labelBackgroundColor=none;fontColor=default;" parent="1" source="node1" target="node8" edge="1">
          <mxGeometry width="50" height="50" relative="1" as="geometry">
            <Array as="points" />
          </mxGeometry>
        </mxCell>
        <mxCell id="edge16" value="" style="html=1;rounded=1;edgeStyle=orthogonalEdgeStyle;dashed=0;startArrow=circlePlus;startFill=0;endArrow=none;strokeColor=#A8201A;exitX=0.250;exitY=0.001;exitDx=0;exitDy=0;entryX=0.500;entryY=1.001;entryDx=0;entryDy=0;labelBackgroundColor=none;fontColor=default;" parent="1" source="node36" target="node1" edge="1">
          <mxGeometry width="50" height="50" relative="1" as="geometry">
            <Array as="points">
              <mxPoint x="2390" y="280" />
              <mxPoint x="2432" y="280" />
              <mxPoint x="2432" y="167" />
              <mxPoint x="2340" y="167" />
            </Array>
          </mxGeometry>
        </mxCell>
        <mxCell id="edge73" value="" style="html=1;rounded=1;edgeStyle=orthogonalEdgeStyle;dashed=1;startArrow=none;endArrow=openThin;endSize=12;strokeColor=#A8201A;exitX=0.066;exitY=0.001;exitDx=0;exitDy=0;entryX=0.603;entryY=1.001;entryDx=0;entryDy=0;labelBackgroundColor=none;fontColor=default;" parent="1" source="node36" target="node1" edge="1">
          <mxGeometry width="50" height="50" relative="1" as="geometry">
            <Array as="points" />
          </mxGeometry>
        </mxCell>
        <mxCell id="label440" value="«create»" style="edgeLabel;resizable=0;html=1;align=left;verticalAlign=top;strokeColor=#0F8B8D;labelBackgroundColor=none;fontColor=#143642;rounded=1;" parent="edge73" vertex="1" connectable="0">
          <mxGeometry x="2305" y="231" as="geometry" />
        </mxCell>
        <mxCell id="edge2" value="" style="html=1;rounded=1;edgeStyle=orthogonalEdgeStyle;dashed=1;startArrow=none;endArrow=block;endSize=12;strokeColor=#A8201A;exitX=0.250;exitY=0.001;exitDx=0;exitDy=0;entryX=0.500;entryY=1.001;entryDx=0;entryDy=0;labelBackgroundColor=none;fontColor=default;" parent="1" source="node29" target="node16" edge="1">
          <mxGeometry width="50" height="50" relative="1" as="geometry">
            <Array as="points">
              <mxPoint x="1148" y="167" />
              <mxPoint x="1207" y="167" />
              <mxPoint x="1207" y="85" />
              <mxPoint x="1124" y="85" />
            </Array>
          </mxGeometry>
        </mxCell>
        <mxCell id="edge51" value="" style="html=1;rounded=1;edgeStyle=orthogonalEdgeStyle;dashed=0;startArrow=diamondThinstartSize=12;endArrow=openThin;endSize=12;strokeColor=#A8201A;exitX=0.500;exitY=1.001;exitDx=0;exitDy=0;entryX=0.500;entryY=1.001;entryDx=0;entryDy=0;labelBackgroundColor=none;fontColor=default;" parent="1" source="node29" target="node18" edge="1">
          <mxGeometry width="50" height="50" relative="1" as="geometry">
            <Array as="points">
              <mxPoint x="1183" y="286" />
              <mxPoint x="1621" y="286" />
            </Array>
          </mxGeometry>
        </mxCell>
        <mxCell id="label306" value="1" style="edgeLabel;resizable=0;html=1;align=left;verticalAlign=top;strokeColor=#0F8B8D;labelBackgroundColor=none;fontColor=#143642;rounded=1;" parent="edge51" vertex="1" connectable="0">
          <mxGeometry x="1183" y="253" as="geometry" />
        </mxCell>
        <mxCell id="label310" value="1" style="edgeLabel;resizable=0;html=1;align=left;verticalAlign=top;strokeColor=#0F8B8D;labelBackgroundColor=none;fontColor=#143642;rounded=1;" parent="edge51" vertex="1" connectable="0">
          <mxGeometry x="1547" y="230" as="geometry" />
        </mxCell>
        <mxCell id="label311" value="message" style="edgeLabel;resizable=0;html=1;align=left;verticalAlign=top;strokeColor=#0F8B8D;labelBackgroundColor=none;fontColor=#000000;rounded=1;fontStyle=1" parent="edge51" vertex="1" connectable="0">
          <mxGeometry x="1142" y="292" as="geometry" />
        </mxCell>
        <mxCell id="edge36" value="" style="html=1;rounded=1;edgeStyle=orthogonalEdgeStyle;dashed=1;startArrow=none;endArrow=openThin;endSize=12;strokeColor=#A8201A;exitX=0.500;exitY=0.001;exitDx=0;exitDy=0;entryX=0.589;entryY=1.001;entryDx=0;entryDy=0;labelBackgroundColor=none;fontColor=default;" parent="1" source="node27" target="node2" edge="1">
          <mxGeometry width="50" height="50" relative="1" as="geometry">
            <Array as="points">
              <mxPoint x="2417" y="654" />
              <mxPoint x="1955" y="654" />
            </Array>
          </mxGeometry>
        </mxCell>
        <mxCell id="label218" value="«create»" style="edgeLabel;resizable=0;html=1;align=left;verticalAlign=top;strokeColor=#0F8B8D;labelBackgroundColor=none;fontColor=#143642;rounded=1;" parent="edge36" vertex="1" connectable="0">
          <mxGeometry x="1905" y="577" as="geometry" />
        </mxCell>
        <mxCell id="edge57" value="" style="html=1;rounded=1;edgeStyle=orthogonalEdgeStyle;dashed=1;startArrow=none;endArrow=openThin;endSize=12;strokeColor=#A8201A;exitX=0.667;exitY=0.001;exitDx=0;exitDy=0;entryX=0.729;entryY=1.001;entryDx=0;entryDy=0;labelBackgroundColor=none;fontColor=default;" parent="1" source="node27" target="node17" edge="1">
          <mxGeometry width="50" height="50" relative="1" as="geometry">
            <Array as="points" />
          </mxGeometry>
        </mxCell>
        <mxCell id="label344" value="«create»" style="edgeLabel;resizable=0;html=1;align=left;verticalAlign=top;strokeColor=#0F8B8D;labelBackgroundColor=none;fontColor=#143642;rounded=1;" parent="edge57" vertex="1" connectable="0">
          <mxGeometry x="2382" y="633" as="geometry" />
        </mxCell>
        <mxCell id="edge44" value="" style="html=1;rounded=1;edgeStyle=orthogonalEdgeStyle;dashed=1;startArrow=none;endArrow=openThin;endSize=12;strokeColor=#A8201A;exitX=1.000;exitY=0.500;exitDx=0;exitDy=0;entryX=0.617;entryY=1.002;entryDx=0;entryDy=0;labelBackgroundColor=none;fontColor=default;" parent="1" source="node27" target="node24" edge="1">
          <mxGeometry width="50" height="50" relative="1" as="geometry">
            <Array as="points">
              <mxPoint x="2571" y="696" />
            </Array>
          </mxGeometry>
        </mxCell>
        <mxCell id="label266" value="«create»" style="edgeLabel;resizable=0;html=1;align=left;verticalAlign=top;strokeColor=#0F8B8D;labelBackgroundColor=none;fontColor=#143642;rounded=1;" parent="edge44" vertex="1" connectable="0">
          <mxGeometry x="2521" y="597" as="geometry" />
        </mxCell>
        <mxCell id="edge8" value="" style="html=1;rounded=1;edgeStyle=orthogonalEdgeStyle;dashed=1;startArrow=none;endArrow=block;endSize=12;strokeColor=#A8201A;exitX=0.250;exitY=0.001;exitDx=0;exitDy=0;entryX=0.750;entryY=1.001;entryDx=0;entryDy=0;labelBackgroundColor=none;fontColor=default;" parent="1" source="node10" target="node18" edge="1">
          <mxGeometry width="50" height="50" relative="1" as="geometry">
            <Array as="points">
              <mxPoint x="2099" y="187" />
              <mxPoint x="1744" y="187" />
              <mxPoint x="1744" y="167" />
              <mxPoint x="1648" y="167" />
            </Array>
          </mxGeometry>
        </mxCell>
        <mxCell id="edge41" value="" style="html=1;rounded=1;edgeStyle=orthogonalEdgeStyle;dashed=0;startArrow=diamondThinstartSize=12;endArrow=openThin;endSize=12;strokeColor=#A8201A;exitX=0.500;exitY=0.001;exitDx=0;exitDy=0;entryX=0.397;entryY=1.001;entryDx=0;entryDy=0;labelBackgroundColor=none;fontColor=default;" parent="1" source="node10" target="node1" edge="1">
          <mxGeometry width="50" height="50" relative="1" as="geometry">
            <Array as="points">
              <mxPoint x="2132" y="203" />
              <mxPoint x="2325" y="203" />
            </Array>
          </mxGeometry>
        </mxCell>
        <mxCell id="label246" value="1" style="edgeLabel;resizable=0;html=1;align=left;verticalAlign=top;strokeColor=#0F8B8D;labelBackgroundColor=none;fontColor=#143642;rounded=1;" parent="edge41" vertex="1" connectable="0">
          <mxGeometry x="2121" y="199" as="geometry" />
        </mxCell>
        <mxCell id="label250" value="1" style="edgeLabel;resizable=0;html=1;align=left;verticalAlign=top;strokeColor=#0F8B8D;labelBackgroundColor=none;fontColor=#143642;rounded=1;" parent="edge41" vertex="1" connectable="0">
          <mxGeometry x="2284" y="158" as="geometry" />
        </mxCell>
        <mxCell id="label251" value="sender" style="edgeLabel;resizable=0;html=1;align=left;verticalAlign=top;strokeColor=#0F8B8D;labelBackgroundColor=none;fontColor=#143642;rounded=1;" parent="edge41" vertex="1" connectable="0">
          <mxGeometry x="2132" y="199" as="geometry" />
        </mxCell>
        <mxCell id="edge61" value="" style="html=1;rounded=1;edgeStyle=orthogonalEdgeStyle;dashed=0;startArrow=diamondThinstartSize=12;endArrow=openThin;endSize=12;strokeColor=#A8201A;exitX=0.500;exitY=1.001;exitDx=0;exitDy=0;entryX=0.397;entryY=1.001;entryDx=0;entryDy=0;labelBackgroundColor=none;fontColor=default;" parent="1" source="node39" target="node1" edge="1">
          <mxGeometry width="50" height="50" relative="1" as="geometry">
            <Array as="points">
              <mxPoint x="2183" y="403" />
              <mxPoint x="1771" y="403" />
              <mxPoint x="1771" y="203" />
              <mxPoint x="2325" y="203" />
            </Array>
          </mxGeometry>
        </mxCell>
        <mxCell id="label366" value="1" style="edgeLabel;resizable=0;html=1;align=left;verticalAlign=top;strokeColor=#0F8B8D;labelBackgroundColor=none;fontColor=#143642;rounded=1;" parent="edge61" vertex="1" connectable="0">
          <mxGeometry x="2178" y="403" as="geometry" />
        </mxCell>
        <mxCell id="label370" value="1" style="edgeLabel;resizable=0;html=1;align=left;verticalAlign=top;strokeColor=#0F8B8D;labelBackgroundColor=none;fontColor=#143642;rounded=1;" parent="edge61" vertex="1" connectable="0">
          <mxGeometry x="1760" y="243" as="geometry" />
        </mxCell>
        <mxCell id="label371" value="sender" style="edgeLabel;resizable=0;html=1;align=left;verticalAlign=top;strokeColor=#0F8B8D;labelBackgroundColor=none;fontColor=#143642;rounded=1;" parent="edge61" vertex="1" connectable="0">
          <mxGeometry x="1750" y="290" as="geometry" />
        </mxCell>
        <mxCell id="edge15" value="" style="html=1;rounded=1;edgeStyle=orthogonalEdgeStyle;dashed=0;startArrow=circlePlus;startFill=0;endArrow=none;strokeColor=#A8201A;exitX=0.500;exitY=0.001;exitDx=0;exitDy=0;entryX=0.833;entryY=1.001;entryDx=0;entryDy=0;labelBackgroundColor=none;fontColor=default;" parent="1" source="node39" target="node10" edge="1">
          <mxGeometry width="50" height="50" relative="1" as="geometry">
            <Array as="points">
              <mxPoint x="2183" y="280" />
              <mxPoint x="2176" y="280" />
            </Array>
          </mxGeometry>
        </mxCell>
        <mxCell id="edge82" value="" style="html=1;rounded=1;edgeStyle=orthogonalEdgeStyle;dashed=1;startArrow=none;endArrow=openThin;endSize=12;strokeColor=#A8201A;exitX=0.208;exitY=0.001;exitDx=0;exitDy=0;entryX=0.500;entryY=1.001;entryDx=0;entryDy=0;labelBackgroundColor=none;fontColor=default;" parent="1" source="node39" target="node10" edge="1">
          <mxGeometry width="50" height="50" relative="1" as="geometry">
            <Array as="points" />
          </mxGeometry>
        </mxCell>
        <mxCell id="label494" value="«create»" style="edgeLabel;resizable=0;html=1;align=left;verticalAlign=top;strokeColor=#0F8B8D;labelBackgroundColor=none;fontColor=#143642;rounded=1;" parent="edge82" vertex="1" connectable="0">
          <mxGeometry x="2082" y="277" as="geometry" />
        </mxCell>
        <mxCell id="edge48" value="" style="html=1;rounded=1;edgeStyle=orthogonalEdgeStyle;dashed=1;startArrow=none;endArrow=openThin;endSize=12;strokeColor=#A8201A;exitX=0.000;exitY=0.500;exitDx=0;exitDy=0;entryX=0.000;entryY=0.500;entryDx=0;entryDy=0;labelBackgroundColor=none;fontColor=default;" parent="1" source="node23" target="node36" edge="1">
          <mxGeometry width="50" height="50" relative="1" as="geometry">
            <Array as="points">
              <mxPoint x="2291" y="490" />
              <mxPoint x="2291" y="317" />
            </Array>
          </mxGeometry>
        </mxCell>
        <mxCell id="label290" value="«create»" style="edgeLabel;resizable=0;html=1;align=left;verticalAlign=top;strokeColor=#0F8B8D;labelBackgroundColor=none;fontColor=#143642;rounded=1;" parent="edge48" vertex="1" connectable="0">
          <mxGeometry x="2268" y="307" as="geometry" />
        </mxCell>
        <mxCell id="edge83" value="" style="html=1;rounded=1;edgeStyle=orthogonalEdgeStyle;dashed=1;startArrow=none;endArrow=openThin;endSize=12;strokeColor=#A8201A;exitX=0.500;exitY=1.001;exitDx=0;exitDy=0;entryX=0.712;entryY=1.001;entryDx=0;entryDy=0;labelBackgroundColor=none;fontColor=default;" parent="1" source="node23" target="node39" edge="1">
          <mxGeometry width="50" height="50" relative="1" as="geometry">
            <Array as="points">
              <mxPoint x="2392" y="574" />
              <mxPoint x="1748" y="574" />
              <mxPoint x="1748" y="451" />
              <mxPoint x="2221" y="451" />
            </Array>
          </mxGeometry>
        </mxCell>
        <mxCell id="label500" value="«create»" style="edgeLabel;resizable=0;html=1;align=left;verticalAlign=top;strokeColor=#0F8B8D;labelBackgroundColor=none;fontColor=#143642;rounded=1;" parent="edge83" vertex="1" connectable="0">
          <mxGeometry x="2206" y="554" as="geometry" />
        </mxCell>
        <mxCell id="edge58" value="" style="html=1;rounded=1;edgeStyle=orthogonalEdgeStyle;dashed=0;startArrow=diamondThinstartSize=12;endArrow=openThin;endSize=12;strokeColor=#A8201A;exitX=0.500;exitY=0.001;exitDx=0;exitDy=0;entryX=0.326;entryY=1.001;entryDx=0;entryDy=0;labelBackgroundColor=none;fontColor=default;" parent="1" source="node12" target="node13" edge="1">
          <mxGeometry width="50" height="50" relative="1" as="geometry">
            <Array as="points">
              <mxPoint x="952" y="654" />
              <mxPoint x="201" y="654" />
            </Array>
          </mxGeometry>
        </mxCell>
        <mxCell id="label348" value="1" style="edgeLabel;resizable=0;html=1;align=left;verticalAlign=top;strokeColor=#0F8B8D;labelBackgroundColor=none;fontColor=#143642;rounded=1;" parent="edge58" vertex="1" connectable="0">
          <mxGeometry x="941" y="747" as="geometry" />
        </mxCell>
        <mxCell id="label352" value="1" style="edgeLabel;resizable=0;html=1;align=left;verticalAlign=top;strokeColor=#0F8B8D;labelBackgroundColor=none;fontColor=#143642;rounded=1;" parent="edge58" vertex="1" connectable="0">
          <mxGeometry x="190" y="357" as="geometry" />
        </mxCell>
        <mxCell id="label353" value="client" style="edgeLabel;resizable=0;html=1;align=left;verticalAlign=top;strokeColor=#0F8B8D;labelBackgroundColor=none;fontColor=#143642;rounded=1;" parent="edge58" vertex="1" connectable="0">
          <mxGeometry x="201" y="357" as="geometry" />
        </mxCell>
        <mxCell id="edge77" value="" style="html=1;rounded=1;edgeStyle=orthogonalEdgeStyle;dashed=1;startArrow=none;endArrow=openThin;endSize=12;strokeColor=#A8201A;exitX=0.615;exitY=0.001;exitDx=0;exitDy=0;entryX=0.376;entryY=1.001;entryDx=0;entryDy=0;labelBackgroundColor=none;fontColor=default;" parent="1" source="node12" target="node4" edge="1">
          <mxGeometry width="50" height="50" relative="1" as="geometry">
            <Array as="points">
              <mxPoint x="967" y="741" />
              <mxPoint x="1211" y="741" />
            </Array>
          </mxGeometry>
        </mxCell>
        <mxCell id="label464" value="«create»" style="edgeLabel;resizable=0;html=1;align=left;verticalAlign=top;strokeColor=#0F8B8D;labelBackgroundColor=none;fontColor=#143642;rounded=1;" parent="edge77" vertex="1" connectable="0">
          <mxGeometry x="1222" y="698" as="geometry" />
        </mxCell>
        <mxCell id="edge53" value="" style="html=1;rounded=1;edgeStyle=orthogonalEdgeStyle;dashed=1;startArrow=none;endArrow=openThin;endSize=12;strokeColor=#A8201A;exitX=0.385;exitY=0.001;exitDx=0;exitDy=0;entryX=0.609;entryY=1.002;entryDx=0;entryDy=0;labelBackgroundColor=none;fontColor=default;" parent="1" source="node12" target="node14" edge="1">
          <mxGeometry width="50" height="50" relative="1" as="geometry">
            <Array as="points">
              <mxPoint x="937" y="756" />
              <mxPoint x="47" y="756" />
            </Array>
          </mxGeometry>
        </mxCell>
        <mxCell id="label320" value="«create»" style="edgeLabel;resizable=0;html=1;align=left;verticalAlign=top;strokeColor=#0F8B8D;labelBackgroundColor=none;fontColor=#143642;rounded=1;" parent="edge53" vertex="1" connectable="0">
          <mxGeometry x="22" y="746" as="geometry" />
        </mxCell>
        <mxCell id="edge74" value="" style="html=1;rounded=1;edgeStyle=orthogonalEdgeStyle;dashed=1;startArrow=none;endArrow=openThin;endSize=12;strokeColor=#A8201A;exitX=1.000;exitY=0.500;exitDx=0;exitDy=0;entryX=0.500;entryY=1.001;entryDx=0;entryDy=0;labelBackgroundColor=none;fontColor=default;" parent="1" source="node12" target="node35" edge="1">
          <mxGeometry width="50" height="50" relative="1" as="geometry">
            <Array as="points">
              <mxPoint x="2681" y="787" />
            </Array>
          </mxGeometry>
        </mxCell>
        <mxCell id="label446" value="«create»" style="edgeLabel;resizable=0;html=1;align=left;verticalAlign=top;strokeColor=#0F8B8D;labelBackgroundColor=none;fontColor=#143642;rounded=1;" parent="edge74" vertex="1" connectable="0">
          <mxGeometry x="2646" y="689" as="geometry" />
        </mxCell>
        <mxCell id="edge38" value="" style="html=1;rounded=1;edgeStyle=orthogonalEdgeStyle;dashed=0;startArrow=diamondThinstartSize=12;endArrow=openThin;endSize=12;strokeColor=#A8201A;exitX=0.500;exitY=1.002;exitDx=0;exitDy=0;entryX=0.397;entryY=1.001;entryDx=0;entryDy=0;labelBackgroundColor=none;fontColor=default;" parent="1" source="node24" target="node1" edge="1">
          <mxGeometry width="50" height="50" relative="1" as="geometry">
            <Array as="points">
              <mxPoint x="2556" y="551" />
              <mxPoint x="1771" y="551" />
              <mxPoint x="1771" y="203" />
              <mxPoint x="2325" y="203" />
            </Array>
          </mxGeometry>
        </mxCell>
        <mxCell id="label228" value="1" style="edgeLabel;resizable=0;html=1;align=left;verticalAlign=top;strokeColor=#0F8B8D;labelBackgroundColor=none;fontColor=#143642;rounded=1;" parent="edge38" vertex="1" connectable="0">
          <mxGeometry x="2158" y="531" as="geometry" />
        </mxCell>
        <mxCell id="label232" value="*" style="edgeLabel;resizable=0;html=1;align=left;verticalAlign=top;strokeColor=#0F8B8D;labelBackgroundColor=none;fontColor=#143642;rounded=1;" parent="edge38" vertex="1" connectable="0">
          <mxGeometry x="2276" y="153" as="geometry" />
        </mxCell>
        <mxCell id="label233" value="registeredUsers" style="edgeLabel;resizable=0;html=1;align=left;verticalAlign=top;strokeColor=#0F8B8D;labelBackgroundColor=none;fontColor=#143642;rounded=1;" parent="edge38" vertex="1" connectable="0">
          <mxGeometry x="1863" y="183" as="geometry" />
        </mxCell>
        <mxCell id="edge56" value="" style="html=1;rounded=1;edgeStyle=orthogonalEdgeStyle;dashed=1;startArrow=none;endArrow=openThin;endSize=12;strokeColor=#A8201A;exitX=0.500;exitY=0.001;exitDx=0;exitDy=0;entryX=0.000;entryY=0.500;entryDx=0;entryDy=0;labelBackgroundColor=none;fontColor=default;" parent="1" source="node24" target="node36" edge="1">
          <mxGeometry width="50" height="50" relative="1" as="geometry">
            <Array as="points">
              <mxPoint x="2556" y="458" />
              <mxPoint x="2291" y="458" />
              <mxPoint x="2291" y="317" />
            </Array>
          </mxGeometry>
        </mxCell>
        <mxCell id="label338" value="«create»" style="edgeLabel;resizable=0;html=1;align=left;verticalAlign=top;strokeColor=#0F8B8D;labelBackgroundColor=none;fontColor=#143642;rounded=1;" parent="edge56" vertex="1" connectable="0">
          <mxGeometry x="2454" y="448" as="geometry" />
        </mxCell>
        <mxCell id="edge42" value="" style="html=1;rounded=1;edgeStyle=orthogonalEdgeStyle;dashed=1;startArrow=none;endArrow=openThin;endSize=12;strokeColor=#A8201A;exitX=0.500;exitY=0.002;exitDx=0;exitDy=0;entryX=0.712;entryY=1.001;entryDx=0;entryDy=0;labelBackgroundColor=none;fontColor=default;fillColor=#FAE5C7;" parent="1" source="node7" target="node39" edge="1">
          <mxGeometry width="50" height="50" relative="1" as="geometry">
            <Array as="points">
              <mxPoint x="1290" y="450" />
              <mxPoint x="2220" y="450" />
            </Array>
          </mxGeometry>
        </mxCell>
        <mxCell id="label254" value="«create»" style="edgeLabel;resizable=0;html=1;align=left;verticalAlign=top;strokeColor=#0F8B8D;labelBackgroundColor=none;fontColor=#143642;rounded=1;" parent="edge42" vertex="1" connectable="0">
          <mxGeometry x="2023" y="431" as="geometry" />
        </mxCell>
      </root>
    </mxGraphModel>
  </diagram>
</mxfile>
